<?xml version="1.0" encoding="iso-8859-1"?>
<!-- Generator: Adobe Illustrator 19.0.0, SVG Export Plug-In . SVG Version: 6.00 Build 0)  -->
<svg xmlns="http://www.w3.org/2000/svg" xmlns:xlink="http://www.w3.org/1999/xlink" version="1.1" id="Capa_1" x="0px" y="0px" viewBox="0 0 511.963 511.963" style="enable-background:new 0 0 511.963 511.963;" xml:space="preserve">
<path style="fill:#79A1E8;" d="M480.4,223.02c120.8,104.8-136.1,303.1-250.1,190.9C81.2,267.12,0,376.42,0,216.52  s22.1-119.1,190.9-190.9C338-36.98,335.5,97.32,480.4,223.02z"/>
<path style="fill:#473CBA;" d="M385.2,85.12l-2.3-26h-26.6l-2.6,26.1c-3.5,0.7-7,1.7-10.3,2.8l-15.2-21.5l-23,13.3l10.9,24.2  c-2.6,2.3-5,4.7-7.3,7.3l-24.4-11.4l-13.3,23l21.8,15.7c-1.1,3.3-2,6.6-2.7,10l-26.9,2.4v26.6l26.8,2.7c0.7,3.7,1.7,7.2,2.8,10.7  l-21.8,15.7l13.3,23l24.4-11.4c2.3,2.6,4.8,5.1,7.4,7.4l-11,24.4l23,13.3l15.3-21.8c3.3,1.1,6.7,2,10.2,2.7l2.6,26.1h26.6l2.3-26  c3.6-0.7,7.1-1.6,10.6-2.8l15.2,21.1l23-13.3l-10.9-23.4c2.8-2.5,5.5-5.1,8-8l23.2,10.4l13.3-23l-20.8-14.6  c1.2-3.5,2.2-7.1,2.9-10.9l25.2-2.5v-26.6l-25.3-2.2c-0.7-3.5-1.6-6.9-2.7-10.2l20.8-14.6l-13.3-23h-11l-12.2,10.4  c-2.4-2.8-5.1-5.4-7.9-7.9l10.8-23.2l-23-13.3h-11L385.2,85.12z M371.8,190.12c-15.6,1.2-28.6-11.7-27.3-27.3  c1-12.3,10.9-22.2,23.2-23.2c15.6-1.2,28.6,11.7,27.3,27.3C394.1,179.12,384.1,189.12,371.8,190.12z"/>
<path style="fill:#4B31AA;" d="M382.9,274.62h-26.6c-2.1,0-3.9-1.6-4.1-3.7l-2.3-23.1c-1.6-0.4-3.1-0.8-4.7-1.3l-13.6,19.3  c-1.2,1.8-3.6,2.3-5.5,1.2l-23-13.3c-1.8-1.1-2.6-3.4-1.7-5.3l9.8-21.7c-1.2-1.1-2.3-2.2-3.4-3.4l-21.6,10.1  c-1.9,0.9-4.3,0.2-5.3-1.7l-13.3-23c-1.1-1.8-0.6-4.2,1.2-5.4l19.4-14c-0.5-1.7-1-3.5-1.4-5.3l-23.8-2.4c-2.1-0.2-3.7-2-3.7-4.1  v-26.6c0-2.2,1.6-3.9,3.8-4.1l23.9-2.1c0.4-1.5,0.8-3.1,1.2-4.6l-19.4-14c-1.7-1.2-2.2-3.6-1.2-5.4l13.3-23c1.1-1.9,3.4-2.6,5.3-1.7  l21.6,10.1c1.1-1.1,2.2-2.2,3.3-3.3l-9.7-21.4c-0.9-1.9-0.1-4.2,1.7-5.3l23-13.3c1.9-1.1,4.2-0.5,5.5,1.2l13.4,19.1  c1.6-0.5,3.2-0.9,4.9-1.3l2.3-23.1c0.2-2.1,2-3.7,4.1-3.7h26.6c2.2,0,3.9,1.6,4.1,3.8l1.4,15.8l8.3-10.1c0.8-1,2-1.5,3.2-1.5h11  c0.7,0,1.4,0.2,2.1,0.6l23,13.3c1.9,1.1,2.6,3.4,1.7,5.3l-9.5,20.4c1.1,1,2.1,2.1,3.2,3.1l9.1-7.8c0.8-0.6,1.7-1,2.7-1h11  c1.5,0,2.9,0.8,3.6,2.1l13.3,23c1.1,1.9,0.5,4.2-1.2,5.5l-18.3,12.8c0.5,1.5,0.9,3.1,1.3,4.7l22.3,2c2.1,0.2,3.8,2,3.8,4.1v26.6  c0,2.1-1.6,3.9-3.7,4.1l-22.1,2.2c-0.4,1.8-0.9,3.6-1.4,5.4l18.3,12.8c1.8,1.2,2.3,3.6,1.2,5.5l-13.3,23c-1.1,1.8-3.4,2.6-5.3,1.7  l-20.4-9.2c-1.3,1.4-2.6,2.7-4,4l9.6,20.6c0.9,1.9,0.2,4.3-1.7,5.3l-23,13.3c-1.8,1.1-4.2,0.6-5.4-1.2l-13.4-18.6  c-1.7,0.5-3.4,0.9-5.1,1.3l-2,22.9C386.8,273.02,385,274.62,382.9,274.62z M360.1,266.32h19l2-22.2c0.2-1.8,1.5-3.4,3.3-3.7  c3.4-0.7,6.8-1.5,10-2.6c1.7-0.6,3.6,0,4.7,1.5l13,18l16.5-9.5l-9.3-20c-0.8-1.7-0.4-3.7,1-4.9c2.7-2.3,5.2-4.9,7.6-7.6  c1.2-1.4,3.2-1.8,4.8-1.1l19.8,8.9l9.5-16.5l-17.7-12.4c-1.5-1.1-2.1-3-1.5-4.7c1.1-3.3,2-6.8,2.7-10.3c0.3-1.8,1.8-3.2,3.7-3.3  l21.4-2.2v-19l-21.5-1.9c-1.8-0.2-3.3-1.5-3.7-3.3c-0.7-3.3-1.5-6.5-2.6-9.6c-0.6-1.7,0-3.7,1.5-4.7l17.7-12.4l-10.2-17.6h-7.1  l-11,9.4c-1.7,1.5-4.3,1.3-5.8-0.4c-2.3-2.6-4.8-5.2-7.5-7.5c-1.4-1.2-1.8-3.2-1-4.9l9.2-19.7l-18.8-10.8h-7.9l-13.5,16.4  c-1.1,1.3-2.8,1.8-4.4,1.3c-1.6-0.5-2.8-1.9-2.9-3.6l-2-22.2h-19l-2.3,22.4c-0.2,1.8-1.5,3.3-3.3,3.7c-3.3,0.7-6.6,1.6-9.8,2.7  c-1.7,0.6-3.7,0-4.7-1.5l-12.9-18.5l-16.5,9.5l9.3,20.7c0.7,1.7,0.3,3.6-1,4.8c-2.4,2.2-4.8,4.5-6.9,6.9c-1.2,1.4-3.2,1.8-4.9,1  l-21-9.8l-9.5,16.5l18.8,13.5c1.5,1.1,2.1,3,1.5,4.7c-1.1,3.1-1.9,6.3-2.6,9.5c-0.4,1.8-1.9,3.2-3.7,3.3l-23.1,2v19l23.1,2.3  c1.8,0.2,3.3,1.5,3.7,3.3c0.7,3.5,1.6,6.9,2.7,10.2c0.6,1.7,0,3.6-1.5,4.7l-18.8,13.5l9.5,16.5l21-9.8c1.7-0.8,3.7-0.4,4.9,1  c2.2,2.5,4.5,4.9,7,7c1.4,1.2,1.8,3.2,1,4.8l-9.5,21l16.5,9.5l13.1-18.7c1.1-1.5,3-2.1,4.7-1.5c3.1,1.1,6.4,1.9,9.6,2.6  c1.8,0.4,3.1,1.8,3.3,3.7L360.1,266.32z M369.8,194.32c-7.8,0-15.3-3.1-20.9-8.6c-6.1-6.1-9.2-14.6-8.5-23.2  c1.1-14.3,12.7-25.9,27-27c8.7-0.7,17.1,2.4,23.2,8.5c6.1,6.1,9.2,14.6,8.5,23.2c-1.1,14.3-12.7,25.9-27,27l0,0  C371.4,194.32,370.6,194.32,369.8,194.32z M369.7,143.62c-0.6,0-1.1,0-1.7,0.1c-10.3,0.8-18.6,9.2-19.4,19.4  c-0.5,6.2,1.7,12.3,6.1,16.7c4.4,4.4,10.5,6.6,16.7,6.1l0,0c10.3-0.8,18.6-9.2,19.4-19.4c0.5-6.2-1.7-12.3-6.1-16.7  C380.8,145.82,375.4,143.62,369.7,143.62z"/>
<path style="fill:#FFFFFF;" d="M463.6,177.62v-26.6l-25.3-2.2c-0.7-3.5-1.6-6.9-2.7-10.2l20.8-14.6l-13.3-23l-23.2,10.4  c-2.4-2.8-5.1-5.4-7.9-7.9l10.8-23.2l-23-13.3l-15,20.8c-3.5-1.2-7.1-2.1-10.7-2.8l-2.3-26h-26.5l-2.6,26.1c-3.5,0.7-7,1.7-10.3,2.8  l-15.2-21.4l-23,13.3l10.9,24.2c-2.6,2.3-5,4.7-7.3,7.3l-24.4-11.4l-13.3,23l21.8,15.7c-1.1,3.3-2,6.6-2.7,10l-26.9,2.4v26.6  l26.8,2.7c0.7,3.7,1.7,7.2,2.8,10.7l-21.8,15.7l13.3,23l24.4-11.4c2.3,2.6,4.8,5.1,7.4,7.4l-11,24.4l23,13.3l15.3-21.8  c3.3,1.1,6.7,2,10.2,2.7l2.6,26.1h26.6l2.3-26c3.6-0.7,7.1-1.6,10.6-2.8l15.2,21.1l23-13.3l-10.9-23.4c2.8-2.5,5.5-5.1,8-8  l23.2,10.4l13.3-23l-20.8-14.6c1.2-3.5,2.2-7.1,2.9-10.9L463.6,177.62z M360.8,190.12c-15.6,1.2-28.6-11.7-27.3-27.3  c1-12.3,10.9-22.2,23.2-23.2c15.6-1.2,28.6,11.7,27.3,27.3C383.1,179.12,373.1,189.12,360.8,190.12z"/>
<path style="fill:#CFDDF7;" d="M463.6,177.62v-26.6l-25.3-2.2c-0.7-3.5-1.6-6.9-2.7-10.2l20.8-14.6l-13.3-23l-23.2,10.4  c-1-1.2-2.1-2.3-3.2-3.5l-39.4,39.6c4.7,5,7.4,11.9,6.8,19.4c-1,12.3-10.9,22.2-23.2,23.2c-7.5,0.6-14.4-2.1-19.4-6.8l-39.4,39.5  c1,1,2.1,2,3.2,3l-11,24.4l23,13.3l15.3-21.8c3.3,1.1,6.7,2,10.2,2.7l2.6,26.1H372l2.3-26c3.6-0.7,7.1-1.6,10.6-2.8l15.2,21.1  l23-13.3l-10.9-23.4c2.8-2.5,5.5-5.1,8-8l23.2,10.4l13.3-23l-20.8-14.6c1.2-3.5,2.2-7.1,2.9-10.9L463.6,177.62z"/>
<g>
	<path style="fill:#4B31AA;" d="M371.9,274.62h-26.6c-2.1,0-3.9-1.6-4.1-3.7l-2.3-23.1c-1.6-0.4-3.1-0.8-4.7-1.3l-13.6,19.3   c-1.2,1.8-3.6,2.3-5.5,1.2l-23-13.3c-1.8-1.1-2.6-3.4-1.7-5.3l9.8-21.7c-1.2-1.1-2.3-2.2-3.4-3.4l-21.6,10.1   c-1.9,0.9-4.3,0.2-5.3-1.7l-13.3-23c-1.1-1.8-0.6-4.2,1.2-5.4l19.4-14c-0.5-1.7-1-3.5-1.4-5.3l-23.8-2.4c-2.1-0.2-3.7-2-3.7-4.1   v-26.6c0-2.2,1.6-3.9,3.8-4.1l23.9-2.1c0.4-1.5,0.8-3.1,1.2-4.6l-19.4-14c-1.7-1.2-2.2-3.6-1.2-5.4l13.3-23   c1.1-1.9,3.4-2.6,5.3-1.7l21.6,10.1c1.1-1.1,2.2-2.2,3.3-3.3l-9.7-21.4c-0.9-1.9-0.1-4.2,1.7-5.3l23-13.3c1.9-1.1,4.2-0.5,5.5,1.2   l13.4,19.1c1.6-0.5,3.2-0.9,4.9-1.3l2.3-23.1c0.2-2.1,2-3.7,4.1-3.7h26.6c2.2,0,3.9,1.6,4.1,3.8l2,22.9c1.8,0.4,3.5,0.9,5.3,1.4   l13.2-18.4c1.2-1.7,3.6-2.2,5.4-1.2l23,13.3c1.9,1.1,2.6,3.4,1.7,5.3l-9.5,20.4c1.3,1.2,2.6,2.5,3.9,3.9l20.4-9.2   c1.9-0.9,4.2-0.1,5.3,1.7l13.3,23c1.1,1.9,0.5,4.2-1.2,5.5l-18.3,12.8c0.5,1.5,0.9,3.1,1.3,4.7l22.3,2c2.1,0.2,3.8,2,3.8,4.1v26.6   c0,2.1-1.6,3.9-3.7,4.1l-22.1,2.2c-0.4,1.8-0.9,3.6-1.4,5.4l18.3,12.8c1.8,1.2,2.3,3.6,1.2,5.5l-13.3,23c-1.1,1.8-3.4,2.6-5.3,1.7   l-20.4-9.2c-1.3,1.4-2.6,2.7-4,4l9.6,20.6c0.9,1.9,0.2,4.3-1.7,5.3l-23,13.3c-1.8,1.1-4.2,0.6-5.4-1.2l-13.4-18.6   c-1.7,0.5-3.4,0.9-5.1,1.3l-2,22.9C375.8,273.02,374,274.62,371.9,274.62z M349.1,266.32h19l2-22.2c0.2-1.8,1.5-3.4,3.3-3.7   c3.4-0.7,6.8-1.5,10-2.6c1.7-0.6,3.6,0,4.7,1.5l13,18l16.5-9.5l-9.3-20c-0.8-1.7-0.4-3.7,1-4.9c2.7-2.3,5.2-4.9,7.6-7.6   c1.2-1.4,3.2-1.8,4.8-1.1l19.8,8.9l9.5-16.5l-17.7-12.4c-1.5-1.1-2.1-3-1.5-4.7c1.1-3.3,2-6.8,2.7-10.3c0.3-1.8,1.8-3.2,3.7-3.3   l21.4-2.2v-19l-21.5-1.9c-1.8-0.2-3.3-1.5-3.7-3.3c-0.7-3.3-1.5-6.5-2.6-9.6c-0.6-1.7,0-3.7,1.5-4.7l17.7-12.4l-9.5-16.5l-19.8,8.9   c-1.7,0.8-3.6,0.3-4.8-1.1c-2.3-2.6-4.8-5.2-7.5-7.5c-1.4-1.2-1.8-3.2-1-4.9l9.2-19.7l-16.5-9.5l-12.8,17.8c-1.1,1.5-3,2.1-4.7,1.5   c-3.3-1.1-6.7-2-10.2-2.7c-1.8-0.3-3.2-1.9-3.4-3.7l-2-22.2h-19l-2.3,22.4c-0.2,1.8-1.5,3.3-3.3,3.7c-3.3,0.7-6.6,1.6-9.8,2.7   c-1.7,0.6-3.7,0-4.7-1.5L316,72.02l-16.5,9.5l9.3,20.7c0.7,1.7,0.3,3.6-1,4.8c-2.4,2.2-4.8,4.5-6.9,6.9c-1.2,1.4-3.2,1.8-4.9,1   l-21-9.8l-9.5,16.5l18.8,13.5c1.5,1.1,2.1,3,1.5,4.7c-1.1,3.1-1.9,6.3-2.6,9.5c-0.4,1.8-1.9,3.2-3.7,3.3l-23.1,2v19l23.1,2.3   c1.8,0.2,3.3,1.5,3.7,3.3c0.7,3.5,1.6,6.9,2.7,10.2c0.6,1.7,0,3.6-1.5,4.7l-18.8,13.5l9.5,16.5l21-9.8c1.7-0.8,3.7-0.4,4.9,1   c2.2,2.5,4.5,4.9,7,7c1.4,1.2,1.8,3.2,1,4.8l-9.5,21l16.5,9.5l13.1-18.7c1.1-1.5,3-2.1,4.7-1.5c3.1,1.1,6.4,1.9,9.6,2.6   c1.8,0.4,3.1,1.8,3.3,3.7L349.1,266.32z M358.8,194.32c-7.8,0-15.3-3.1-20.9-8.6c-6.1-6.1-9.2-14.6-8.5-23.2   c1.1-14.3,12.7-25.9,27-27c8.7-0.7,17.1,2.4,23.2,8.5c6.1,6.1,9.2,14.6,8.5,23.2c-1.1,14.3-12.7,25.9-27,27l0,0   C360.4,194.32,359.6,194.32,358.8,194.32z M358.8,143.62c-0.6,0-1.1,0-1.7,0.1c-10.3,0.8-18.6,9.2-19.4,19.4   c-0.5,6.2,1.7,12.3,6.1,16.7c4.4,4.4,10.5,6.6,16.7,6.1l0,0c10.3-0.8,18.6-9.2,19.4-19.4c0.5-6.2-1.7-12.3-6.1-16.7   C369.8,145.82,364.4,143.62,358.8,143.62z"/>
	<path style="fill:#4B31AA;" d="M467.4,128.22h-11c-2.3,0-4.1-1.9-4.1-4.1s1.9-4.1,4.1-4.1h11c2.3,0,4.1,1.9,4.1,4.1   S469.7,128.22,467.4,128.22z"/>
	<path style="fill:#4B31AA;" d="M435.6,142.82c-2.2,0-4.1-1.7-4.1-4c-0.1-2.3,1.7-4.2,4-4.3l11.7-0.5c2.3-0.1,4.2,1.7,4.3,4   s-1.7,4.2-4,4.3l-11.7,0.5C435.7,142.82,435.7,142.82,435.6,142.82z"/>
	<path style="fill:#4B31AA;" d="M474.6,155.22h-11c-2.3,0-4.1-1.9-4.1-4.1c0-2.3,1.9-4.1,4.1-4.1h11c2.3,0,4.1,1.9,4.1,4.1   C478.8,153.32,476.9,155.22,474.6,155.22z"/>
	<path style="fill:#4B31AA;" d="M474.6,181.72h-11c-2.3,0-4.1-1.9-4.1-4.1c0-2.3,1.9-4.1,4.1-4.1h11c2.3,0,4.1,1.9,4.1,4.1   C478.8,179.92,476.9,181.72,474.6,181.72z"/>
	<path style="fill:#4B31AA;" d="M467.4,209.72c-0.1,0-0.1,0-0.2,0l-12.2-0.5c-2.3-0.1-4.1-2-4-4.3s2-4.1,4.3-4l12.2,0.5   c2.3,0.1,4.1,2,4,4.3C471.5,207.92,469.6,209.72,467.4,209.72z"/>
	<path style="fill:#4B31AA;" d="M446.6,195.12h-11c-2.3,0-4.1-1.9-4.1-4.1c0-2.3,1.9-4.1,4.1-4.1h11c2.3,0,4.1,1.9,4.1,4.1   C450.8,193.32,448.9,195.12,446.6,195.12z"/>
	<path style="fill:#4B31AA;" d="M454.1,232.72h-11c-2.3,0-4.1-1.9-4.1-4.1c0-2.3,1.9-4.1,4.1-4.1h11c2.3,0,4.1,1.9,4.1,4.1   C458.3,230.82,456.4,232.72,454.1,232.72z"/>
	<path style="fill:#4B31AA;" d="M423,230.22h-11c-2.3,0-4.1-1.9-4.1-4.1s1.9-4.1,4.1-4.1h11c2.3,0,4.1,1.9,4.1,4.1   S425.3,230.22,423,230.22z"/>
	<path style="fill:#4B31AA;" d="M433.9,253.62h-11c-2.3,0-4.1-1.9-4.1-4.1c0-2.3,1.9-4.1,4.1-4.1h11c2.3,0,4.1,1.9,4.1,4.1   C438,251.82,436.2,253.62,433.9,253.62z"/>
	<path style="fill:#4B31AA;" d="M410.9,266.92h-11c-2.3,0-4.1-1.9-4.1-4.1s1.9-4.1,4.1-4.1h11c2.3,0,4.1,1.9,4.1,4.1   S413.2,266.92,410.9,266.92z"/>
	<path style="fill:#4B31AA;" d="M328.2,267.62H317c-2.3,0-4.1-1.9-4.1-4.1c0-2.3,1.9-4.1,4.1-4.1h11.2c2.3,0,4.1,1.9,4.1,4.1   C332.4,265.72,330.5,267.62,328.2,267.62z"/>
	<path style="fill:#4B31AA;" d="M328.2,70.62h-11c-2.3,0-4.1-1.9-4.1-4.1s1.9-4.1,4.1-4.1h11c2.3,0,4.1,1.9,4.1,4.1   S330.5,70.62,328.2,70.62z"/>
	<path style="fill:#4B31AA;" d="M284.4,104.02h-11c-2.3,0-4.1-1.9-4.1-4.1s1.9-4.1,4.1-4.1h11c2.3,0,4.1,1.9,4.1,4.1   C288.6,102.22,286.7,104.02,284.4,104.02z"/>
	<path style="fill:#4B31AA;" d="M284.4,233.92h-11c-2.3,0-4.1-1.9-4.1-4.1c0-2.3,1.9-4.1,4.1-4.1h11c2.3,0,4.1,1.9,4.1,4.1   C288.6,232.02,286.7,233.92,284.4,233.92z"/>
	<path style="fill:#4B31AA;" d="M423.1,107.82h-11c-2.3,0-4.1-1.9-4.1-4.1s1.9-4.1,4.1-4.1h11c2.3,0,4.1,1.9,4.1,4.1   S425.4,107.82,423.1,107.82z"/>
</g>
<path style="fill:#FBB03B;" d="M358.8,212.92c-26.5,0-48.1-21.6-48.1-48.1s21.6-48.1,48.1-48.1s48.1,21.6,48.1,48.1  S385.3,212.92,358.8,212.92z M358.8,138.52c-14.5,0-26.3,11.8-26.3,26.3s11.8,26.3,26.3,26.3s26.3-11.8,26.3-26.3  S373.3,138.52,358.8,138.52z"/>
<path style="fill:#D7ECF9;" d="M280.6,457.82c0-20.4-16.5-37-37-37H89.5c-6,0-10.9-4.9-10.9-10.9v-240.3c0-6,4.9-10.9,10.9-10.9  h154.1c20.4,0,37,16.5,37,37V457.82z"/>
<g>
	<path style="fill:#79A1E8;" d="M234.9,256.32H124.2c-2.3,0-4.1-1.9-4.1-4.1c0-2.3,1.9-4.1,4.1-4.1h110.7c2.3,0,4.1,1.9,4.1,4.1   C239.1,254.52,237.2,256.32,234.9,256.32z"/>
	<path style="fill:#79A1E8;" d="M234.9,276.52H124.2c-2.3,0-4.1-1.9-4.1-4.1c0-2.3,1.9-4.1,4.1-4.1h110.7c2.3,0,4.1,1.9,4.1,4.1   C239.1,274.72,237.2,276.52,234.9,276.52z"/>
	<path style="fill:#79A1E8;" d="M234.9,296.72H124.2c-2.3,0-4.1-1.9-4.1-4.1c0-2.3,1.9-4.1,4.1-4.1h110.7c2.3,0,4.1,1.9,4.1,4.1   C239.1,294.92,237.2,296.72,234.9,296.72z"/>
	<path style="fill:#79A1E8;" d="M234.9,216.02H124.2c-2.3,0-4.1-1.9-4.1-4.1c0-2.3,1.9-4.1,4.1-4.1h110.7c2.3,0,4.1,1.9,4.1,4.1   C239.1,214.12,237.2,216.02,234.9,216.02z"/>
	<path style="fill:#79A1E8;" d="M234.9,236.22H124.2c-2.3,0-4.1-1.9-4.1-4.1c0-2.3,1.9-4.1,4.1-4.1h110.7c2.3,0,4.1,1.9,4.1,4.1   C239.1,234.32,237.2,236.22,234.9,236.22z"/>
</g>
<path style="fill:#D7ECF9;" d="M280.6,457.82c0-20.4,16.5-37,37-37h154.1c6,0,10.9-4.9,10.9-10.9v-240.3c0-6-4.9-10.9-10.9-10.9  H317.6c-20.4,0-37,16.5-37,37V457.82z"/>
<path style="fill:#AACFE2;" d="M479,161.62l-198.4,198.4v97.9c0-20.4,16.5-37,37-37h154.1c6,0,10.9-4.9,10.9-10.9v-240.4  C482.6,166.42,481.2,163.52,479,161.62z"/>
<path style="fill:#4B31AA;" d="M471.7,154.62H317.6c-16.2,0-30.3,9.5-37,23.1c-6.7-13.7-20.7-23.1-37-23.1H89.5c-8.3,0-15,6.7-15,15  v240.3c0,8.3,6.7,15,15,15h154.1c18.1,0,32.8,14.7,32.8,32.8c0,2.3,1.9,4.1,4.1,4.1l0,0l0,0c2.3,0,4.1-1.9,4.1-4.1  c0-18.1,14.7-32.8,32.8-32.8h154.1c8.3,0,15-6.7,15-15v-240.3C486.7,161.32,480,154.62,471.7,154.62z M276.4,433.12  c-7.5-9.9-19.4-16.4-32.8-16.4H89.5c-3.7,0-6.7-3-6.7-6.7v-240.4c0-3.7,3-6.7,6.7-6.7h154.1c18.1,0,32.8,14.7,32.8,32.8V433.12  L276.4,433.12z M478.4,410.02c0,3.7-3,6.7-6.7,6.7H317.6c-13.4,0-25.3,6.4-32.8,16.4v-237.4c0-18.1,14.7-32.8,32.8-32.8h154.1  c3.7,0,6.7,3,6.7,6.7V410.02L478.4,410.02z"/>
<g>
	<path style="fill:#79A1E8;" d="M436.9,256.32H326.2c-2.3,0-4.1-1.9-4.1-4.1c0-2.3,1.9-4.1,4.1-4.1h110.7c2.3,0,4.1,1.9,4.1,4.1   C441.1,254.52,439.2,256.32,436.9,256.32z"/>
	<path style="fill:#79A1E8;" d="M436.9,276.52H326.2c-2.3,0-4.1-1.9-4.1-4.1c0-2.3,1.9-4.1,4.1-4.1h110.7c2.3,0,4.1,1.9,4.1,4.1   C441.1,274.72,439.2,276.52,436.9,276.52z"/>
	<path style="fill:#79A1E8;" d="M436.9,296.72H326.2c-2.3,0-4.1-1.9-4.1-4.1c0-2.3,1.9-4.1,4.1-4.1h110.7c2.3,0,4.1,1.9,4.1,4.1   C441.1,294.92,439.2,296.72,436.9,296.72z"/>
	<path style="fill:#79A1E8;" d="M436.9,216.02H326.2c-2.3,0-4.1-1.9-4.1-4.1c0-2.3,1.9-4.1,4.1-4.1h110.7c2.3,0,4.1,1.9,4.1,4.1   C441.1,214.12,439.2,216.02,436.9,216.02z"/>
	<path style="fill:#79A1E8;" d="M436.9,236.22H326.2c-2.3,0-4.1-1.9-4.1-4.1c0-2.3,1.9-4.1,4.1-4.1h110.7c2.3,0,4.1,1.9,4.1,4.1   C441.1,234.32,439.2,236.22,436.9,236.22z"/>
</g>
<rect x="208.196" y="326.721" transform="matrix(0.7071 -0.7071 0.7071 0.7071 -177.8135 261.6611)" style="fill:#F9D015;" width="37.5" height="37.5"/>
<path style="fill:#473CBA;" d="M353.4,474.52l-15.3,15.3c-9.1,9.1-23.9,9.1-33,0l-89-89c-9.1-9.1-9.1-23.9,0-33l15.3-15.3  c9.1-9.1,23.9-9.1,33,0l89,89C362.5,450.62,362.5,465.42,353.4,474.52z"/>
<path style="fill:#4B31AA;" d="M321.6,500.72c-7,0-14.1-2.7-19.4-8l-89-89c-10.7-10.7-10.7-28.1,0-38.8l15.3-15.3  c10.7-10.7,28.1-10.7,38.8,0l89,89c5.2,5.2,8,12.1,8,19.4s-2.9,14.2-8,19.4l-15.3,15.3C335.7,498.02,328.7,500.72,321.6,500.72z   M248,349.92c-4.9,0-9.8,1.9-13.5,5.6l-15.3,15.3c-7.5,7.5-7.5,19.6,0,27.1l89,89c7.5,7.5,19.6,7.5,27.1,0l15.3-15.3  c7.5-7.5,7.5-19.6,0-27.1l-89-89C257.8,351.82,252.9,349.92,248,349.92z"/>
<g>
	<path style="fill:#FFFFFF;" d="M362.3,465.62l-15.3,15.3c-9.1,9.1-23.9,9.1-33,0l-89-89c-9.1-9.1-9.1-23.9,0-33l15.3-15.3   c9.1-9.1,23.9-9.1,33,0l89,89C371.4,441.72,371.4,456.52,362.3,465.62z"/>
	<path style="fill:#FFFFFF;" d="M203.2,355.82l34-34c2.9-2.9,2.9-7.6,0-10.5l-12.2-12.2c-2.9-2.9-7.6-2.9-10.5,0l-34,34   c-2.9,2.9-2.9,7.6,0,10.5l12.2,12.2C195.6,358.72,200.3,358.72,203.2,355.82z"/>
</g>
<path style="fill:#473CBA;" d="M39.2,338.62c-44.7-44.7-44.5-117.3,0.4-162.2s117.5-45.1,162.2-0.4s44.5,117.3-0.4,162.2  S83.8,383.32,39.2,338.62z"/>
<path style="fill:#F9D015;" d="M48.3,329.42c-44.7-44.7-44.5-117.3,0.4-162.2s117.5-45.1,162.2-0.4s44.5,117.3-0.4,162.2  C165.6,374.02,93,374.12,48.3,329.42z"/>
<path style="fill:#FFFFFF;" d="M58.1,319.62c-39.3-39.3-39.1-103.1,0.3-142.6c39.5-39.5,103.3-39.6,142.6-0.3s39.1,103.1-0.3,142.6  C161.2,358.82,97.4,358.92,58.1,319.62z"/>
<path style="fill:#4B31AA;" d="M129.1,353.12c-26.8,0-53.6-10.2-73.9-30.5l0,0l0,0c-19.8-19.8-30.6-46.1-30.6-74.2  c0.1-28,11-54.4,30.9-74.3c41-41,107.6-41.2,148.5-0.3c40.8,40.8,40.7,107.4-0.3,148.5C183.1,342.82,156.1,353.12,129.1,353.12z   M130,151.52c-24.8,0-49.7,9.5-68.7,28.4c-18.3,18.3-28.4,42.6-28.5,68.4s9.9,50.1,28.2,68.3l0,0c18.7,18.7,43.4,28.1,68.1,28.1  c24.8,0,49.7-9.5,68.7-28.4c37.8-37.8,37.9-99.1,0.3-136.7C179.4,160.92,154.7,151.52,130,151.52z"/>
<path style="fill:#F9D015;" d="M79.2,298.62c-27.7-27.7-27.6-72.7,0.2-100.6c27.8-27.8,72.9-27.9,100.6-0.2  c27.7,27.7,27.6,72.7-0.2,100.6S106.9,326.32,79.2,298.62z"/>
<path style="fill:#4B31AA;" d="M129.2,323.42c-20,0-38.9-7.8-53-21.9l0,0l0,0c-14.2-14.2-22-33.1-21.9-53.2c0-20.1,7.9-39,22.2-53.3  c29.4-29.4,77.2-29.5,106.4-0.2c29.3,29.3,29.2,77-0.2,106.4c-14.2,14.2-33.2,22.1-53.3,22.2  C129.4,323.42,129.3,323.42,129.2,323.42z M129.9,181.22c-17.2,0-34.4,6.6-47.6,19.7c-12.7,12.7-19.7,29.5-19.7,47.4  s6.9,34.7,19.5,47.3l0,0c12.6,12.6,29.3,19.5,47.1,19.5c0.1,0,0.1,0,0.2,0c17.9,0,34.7-7,47.4-19.7c26.2-26.2,26.3-68.7,0.2-94.7  C164.1,187.72,147,181.22,129.9,181.22z"/>
<polygon style="fill:#7693DD;" points="357.3,428.22 309.6,475.92 230.1,396.42 277.8,348.72 "/>
<g>
	
		<rect x="228.159" y="369.201" transform="matrix(0.7071 -0.7071 0.7071 0.7071 -192.3077 296.6291)" style="fill:#473CBA;" width="67.499" height="22.5"/>
	
		<rect x="291.776" y="432.81" transform="matrix(0.7071 -0.7071 0.7071 0.7071 -218.6537 360.244)" style="fill:#473CBA;" width="67.499" height="22.5"/>
</g>
<path style="fill:#4B31AA;" d="M365.2,429.72l-89-89c-7.6-7.6-18.7-9.8-28.3-6.6l-8.6-8.6l0.8-0.8c2.2-2.2,3.4-5.1,3.4-8.2  s-1.2-6-3.4-8.2l-5.4-5.4c23.5-44.9,16.5-101.5-21-139c-46.2-46.2-121.6-46.1-168.1,0.4c-1.5,1.5-7.6,7.6-9.1,9.1  c-22.5,22.5-34.9,52.4-35,84.1s12.2,61.6,34.6,84c23.1,23.1,53.4,34.6,83.7,34.6c23.3,0,46.7-6.8,66.8-20.4l3.1,3.1  c2.3,2.3,5.2,3.4,8.2,3.4s5.9-1.1,8.2-3.4l0,0l0.8-0.8l8.6,8.6c-3.3,9.6-1.1,20.7,6.6,28.3l89,89c5.4,5.4,12.4,8,19.4,8  s14.1-2.7,19.4-8l15.3-15.3C375.9,457.82,375.9,440.42,365.2,429.72z M130.1,137.72c28.2,0,56.4,10.7,77.8,32.1  c43,43,42.8,113.1-0.4,156.3c-21.7,21.7-50.1,32.5-78.5,32.5c-28.2,0-56.4-10.7-77.8-32.1c-20.8-20.8-32.3-48.6-32.2-78.1  s11.6-57.3,32.6-78.3C73.3,148.52,101.7,137.72,130.1,137.72z M42.1,335.62c-20.8-20.8-32.3-48.6-32.2-78.1c0-4.8,0.3-9.6,1-14.4  c-0.1,1.7-0.1,3.5-0.1,5.2c-0.1,31.7,12.2,61.6,34.6,84c23.1,23.1,53.4,34.6,83.7,34.6c1.9,0,3.7-0.1,5.6-0.1c-4.9,0.6-9.8,1-14.7,1  C91.7,367.82,63.5,357.12,42.1,335.62z M200.3,352.92c-0.6,0.6-1.4,1-2.3,1s-1.7-0.3-2.3-1l-2.2-2.2c3.8-2.9,7.4-6.1,10.8-9.6  c1.5-1.5,3-3.1,4.4-4.7c1.6-1.4,3.2-2.9,4.7-4.4c6.6-6.6,12.3-13.9,17.1-21.6l3.8,3.8c0.6,0.6,1,1.4,1,2.3s-0.3,1.7-1,2.3  L200.3,352.92z M219.7,358.92l-6.8-6.8l20.6-20.6l6.8,6.8c-1,0.8-2,1.6-2.9,2.5l-15.3,15.3C221.2,356.92,220.4,357.92,219.7,358.92z   M228,389.02c-7.5-7.5-7.5-19.6,0-27.1l15.3-15.3c3.7-3.7,8.6-5.6,13.5-5.6s9.8,1.9,13.5,5.6l1.8,1.8l-42.4,42.4L228,389.02z   M235.9,396.42l41.8-41.8l10,10l-41.8,41.8L235.9,396.42z M251.8,412.32l41.8-41.8l41.8,41.8l-41.8,41.8L251.8,412.32z   M309.6,470.02l-10-10l41.8-41.8l10,10L309.6,470.02z M359.3,462.72l-15.3,15.3c-7.5,7.5-19.6,7.5-27.1,0l-1.8-1.8l42.4-42.4  l1.8,1.8c3.6,3.6,5.6,8.4,5.6,13.5C364.9,454.22,363,459.02,359.3,462.72z"/>
<ellipse style="fill:#473CBA;" cx="150.2" cy="494.02" rx="115.1" ry="8.2"/>
<g>
</g>
<g>
</g>
<g>
</g>
<g>
</g>
<g>
</g>
<g>
</g>
<g>
</g>
<g>
</g>
<g>
</g>
<g>
</g>
<g>
</g>
<g>
</g>
<g>
</g>
<g>
</g>
<g>
</g>
</svg>
