<?xml version="1.0" encoding="iso-8859-1"?>
<!-- Generator: Adobe Illustrator 19.0.0, SVG Export Plug-In . SVG Version: 6.00 Build 0)  -->
<svg xmlns="http://www.w3.org/2000/svg" xmlns:xlink="http://www.w3.org/1999/xlink" version="1.1" id="Capa_1" x="0px" y="0px" viewBox="0 0 512.047 512.047" style="enable-background:new 0 0 512.047 512.047;" xml:space="preserve">
<path style="fill:#79A1E8;" d="M447.424,184.047c104.2,90.4-117.5,261.5-215.8,164.7c-128.6-126.7-198.7-32.4-198.7-170.4  s19-102.8,164.7-164.7C324.624-40.253,322.424,75.647,447.424,184.047z"/>
<path style="fill:#7693DD;" d="M499.824,334.947c0,15.4-12.5,27.9-27.9,27.9h-31.8c-15.4,0-27.9-12.5-27.9-27.9v-238.6  c0-15.4,12.5-27.9,27.9-27.9h31.8c15.4,0,27.9,12.5,27.9,27.9V334.947z"/>
<g>
	<path style="fill:#FFFFFF;" d="M476.424,95.347c0-14.8-12-26.8-26.8-26.8h-306.1c-14.8,0-27.1,12-27.1,26.8v175.1h360V95.347   L476.424,95.347z"/>
	<path style="fill:#FFFFFF;" d="M116.424,270.347v65.4c0,14.8,12.3,27.1,27.1,27.1h306.1c14.8,0,26.8-12.3,26.8-27.1v-65.4H116.424z   "/>
</g>
<path style="fill:#CFDDF7;" d="M410.324,270.347l-92.5,92.5h131.8c14.8,0,26.8-12.3,26.8-27.1v-65.4H410.324z"/>
<circle style="fill:#FFFFFF;" cx="296.624" cy="308.547" r="14.8"/>
<path style="fill:#4B31AA;" d="M296.624,327.447c-10.5,0-19-8.5-19-19s8.5-19,19-19s19,8.5,19,19S307.024,327.447,296.624,327.447z   M296.624,297.847c-5.9,0-10.7,4.8-10.7,10.7c0,5.9,4.8,10.7,10.7,10.7s10.7-4.8,10.7-10.7S302.524,297.847,296.624,297.847z"/>
<polygon style="fill:#FFFFFF;" points="375.524,415.147 282.324,415.147 272.424,362.847 365.624,362.847 "/>
<polygon style="fill:#D7ECF9;" points="356.424,415.147 240.324,415.147 253.424,362.847 346.624,362.847 "/>
<path style="fill:#FFFFFF;" d="M402.024,422.547c0-4.1-4.5-7.4-10.1-7.4h-176.9c-5.6,0-10.1,3.3-10.1,7.4l0,0  c0,4.1,4.5,7.4,10.1,7.4h176.9C397.424,429.947,402.024,426.647,402.024,422.547L402.024,422.547z"/>
<path style="fill:#CFDDF7;" d="M476.424,95.347c0-14.8-12-26.8-26.8-26.8h-31.4l-187.5,201.8h245.7V95.347L476.424,95.347z"/>
<rect x="136.724" y="87.547" style="fill:#79A1E8;" width="321.6" height="180.5"/>
<polygon style="fill:#5E8BCC;" points="232.924,268.047 458.324,268.047 458.324,87.547 400.524,87.547 "/>
<path style="fill:#4B31AA;" d="M458.324,272.247h-321.6c-2.3,0-4.2-1.9-4.2-4.2v-180.5c0-2.3,1.9-4.2,4.2-4.2h321.6  c2.3,0,4.1,1.9,4.1,4.2v180.5C462.524,270.347,460.624,272.247,458.324,272.247z M140.824,263.947h313.3v-172.3h-313.3V263.947z"/>
<path style="fill:#F7931E;" d="M333.824,195.447h-166c-2.3,0-4.1-1.9-4.1-4.2s1.9-4.2,4.1-4.2h166c2.3,0,4.1,1.9,4.1,4.2  S336.124,195.447,333.824,195.447z"/>
<path style="fill:#D87819;" d="M333.824,195.447c2.3,0,4.1-1.9,4.1-4.2s-1.9-4.2-4.1-4.2h-25.8l-7.7,8.3L333.824,195.447  L333.824,195.447z"/>
<g>
	<path style="fill:#4B31AA;" d="M333.824,221.347h-166c-2.3,0-4.1-1.9-4.1-4.2s1.9-4.2,4.1-4.2h166c2.3,0,4.1,1.9,4.1,4.2   S336.124,221.347,333.824,221.347z"/>
	<path style="fill:#4B31AA;" d="M333.824,247.347h-166c-2.3,0-4.1-1.9-4.1-4.2s1.9-4.2,4.1-4.2h166c2.3,0,4.1,1.9,4.1,4.2   S336.124,247.347,333.824,247.347z"/>
</g>
<rect x="167.824" y="118.647" style="fill:#F9D015;" width="259.4" height="51.9"/>
<polygon style="fill:#D6AF0D;" points="323.424,170.547 427.224,170.547 427.224,118.647 371.624,118.647 "/>
<path style="fill:#4B31AA;" d="M427.224,174.647h-259.4c-2.3,0-4.1-1.9-4.1-4.2v-51.9c0-2.3,1.9-4.2,4.1-4.2h259.4  c2.3,0,4.1,1.9,4.1,4.2v51.9C431.324,172.847,429.524,174.647,427.224,174.647z M171.924,166.347h251.1v-43.6h-251.1V166.347z"/>
<rect x="354.524" y="191.247" style="fill:#CFDDF7;" width="72.6" height="51.9"/>
<g>
	<path style="fill:#4B31AA;" d="M427.224,247.347h-72.6c-2.3,0-4.1-1.9-4.1-4.2v-51.9c0-2.3,1.9-4.2,4.1-4.2h72.6   c2.3,0,4.1,1.9,4.1,4.2v51.9C431.324,245.447,429.524,247.347,427.224,247.347z M358.724,239.047h64.3v-43.6h-64.3V239.047z"/>
	<path style="fill:#4B31AA;" d="M143.524,64.347c-17.2,0-31.3,13.9-31.3,31v240.5c0,17.2,14,31.2,31.3,31.2h104.5l-11,43.9h-22   c-8,0-14.3,5.1-14.3,11.6s6.3,11.6,14.3,11.6h176.9c8,0,14.3-5.1,14.3-11.6s-6.3-11.6-14.3-11.6h-12.9l-8.3-43.9h101.3   c17.7,0,32-14.4,32-32v-238.7c0-17.7-14.4-32-32-32L143.524,64.347L143.524,64.347z M120.624,95.347c0-12.5,10.3-22.7,23-22.7   h306.1c12.5,0,22.7,10.2,22.7,22.7v170.9h-351.8V95.347z M256.624,367.047h86.5l8.3,43.9h-105.7L256.624,367.047z M397.824,422.547   c0,1.3-2.3,3.3-6,3.3h-176.8c-3.7,0-6-1.9-6-3.3s2.3-3.3,6-3.3h176.9C395.524,419.247,397.824,421.147,397.824,422.547z    M370.524,410.947h-10.6l-8.3-43.9h10.6L370.524,410.947z M143.524,358.747c-12.4,0-23-10.5-23-22.9v-61.2h351.7v61.2   c0,12.6-10.2,22.9-22.7,22.9H143.524z M495.724,334.947c0,13.1-10.6,23.7-23.7,23.7h-1.3c6.1-5.7,10-13.9,10-22.9v-240.4   c0-8.9-3.8-17-9.9-22.7h1.2c13.1,0,23.7,10.6,23.7,23.7L495.724,334.947L495.724,334.947z"/>
</g>
<path style="fill:#7693DD;" d="M189.224,440.347h-148.7c-7.6,0-13.8-6.2-13.8-13.8v-211c0-7.6,6.2-13.8,13.8-13.8h148.7  c7.6,0,13.8,6.2,13.8,13.8v211C203.124,434.147,196.924,440.347,189.224,440.347z"/>
<path style="fill:#FFFFFF;" d="M174.724,440.347h-148.7c-7.6,0-13.8-6.2-13.8-13.8v-211c0-7.6,6.2-13.8,13.8-13.8h148.7  c7.6,0,13.8,6.2,13.8,13.8v211C188.524,434.147,182.324,440.347,174.724,440.347z"/>
<path style="fill:#CFDDF7;" d="M12.224,424.747v1.7c0,7.6,6.2,13.8,13.8,13.8h148.7c7.6,0,13.8-6.2,13.8-13.8v-178.1L12.224,424.747  z"/>
<rect x="32.924" y="222.447" style="fill:#7693DD;" width="134.9" height="186.8"/>
<polygon style="fill:#6382C9;" points="32.924,403.947 32.924,409.147 167.824,409.147 167.824,269.147 "/>
<path style="fill:#4B31AA;" d="M167.824,413.347h-134.9c-2.3,0-4.1-1.9-4.1-4.2v-186.7c0-2.3,1.9-4.2,4.1-4.2h134.9  c2.3,0,4.1,1.9,4.1,4.2v186.7C171.924,411.447,170.124,413.347,167.824,413.347z M37.124,405.047h126.6v-178.5h-126.6V405.047z"/>
<rect x="102.424" y="296.547" style="fill:#FFFFFF;" width="51.9" height="38.6"/>
<polygon style="fill:#CFDDF7;" points="102.424,335.047 154.324,335.047 154.324,296.547 140.424,296.547 102.424,334.447 "/>
<path style="fill:#4B31AA;" d="M154.324,339.247h-51.9c-2.3,0-4.2-1.9-4.2-4.2v-38.6c0-2.3,1.9-4.2,4.2-4.2h51.9  c2.3,0,4.1,1.9,4.1,4.2v38.6C158.424,337.347,156.624,339.247,154.324,339.247z M106.624,330.947h43.6v-30.3h-43.6V330.947z"/>
<path style="fill:#F7931E;" d="M84.824,305.447h-35.3c-2.3,0-4.2-1.9-4.2-4.2s1.9-4.2,4.2-4.2h35.3c2.3,0,4.2,1.9,4.2,4.2  S87.124,305.447,84.824,305.447z"/>
<g>
	<path style="fill:#4B31AA;" d="M84.824,320.947h-35.3c-2.3,0-4.2-1.9-4.2-4.2c0-2.3,1.9-4.2,4.2-4.2h35.3c2.3,0,4.2,1.9,4.2,4.2   C88.924,319.147,87.124,320.947,84.824,320.947z"/>
	<path style="fill:#4B31AA;" d="M84.824,336.547h-35.3c-2.3,0-4.2-1.9-4.2-4.2c0-2.3,1.9-4.2,4.2-4.2h35.3c2.3,0,4.2,1.9,4.2,4.2   C88.924,334.647,87.124,336.547,84.824,336.547z"/>
	<path style="fill:#4B31AA;" d="M136.724,361.447h-87.2c-2.3,0-4.2-1.9-4.2-4.2s1.9-4.2,4.2-4.2h87.2c2.3,0,4.1,1.9,4.1,4.2   C140.824,359.547,139.024,361.447,136.724,361.447z"/>
	<path style="fill:#4B31AA;" d="M136.724,377.047h-87.2c-2.3,0-4.2-1.9-4.2-4.2s1.9-4.2,4.2-4.2h87.2c2.3,0,4.1,1.9,4.1,4.2   S139.024,377.047,136.724,377.047z"/>
	<path style="fill:#4B31AA;" d="M136.724,392.547h-87.2c-2.3,0-4.2-1.9-4.2-4.2s1.9-4.2,4.2-4.2h87.2c2.3,0,4.1,1.9,4.1,4.2   S139.024,392.547,136.724,392.547z"/>
</g>
<rect x="46.924" y="239.047" style="fill:#F9D015;" width="106.9" height="41.5"/>
<g>
	<path style="fill:#4B31AA;" d="M153.824,284.647h-106.9c-2.3,0-4.2-1.9-4.2-4.2v-41.5c0-2.3,1.9-4.2,4.2-4.2h106.9   c2.3,0,4.1,1.9,4.1,4.2v41.5C157.924,282.847,156.124,284.647,153.824,284.647z M51.124,276.347h98.6v-33.2h-98.6V276.347z"/>
	<path style="fill:#4B31AA;" d="M189.224,197.547h-163.2c-9.9,0-18,8.1-18,18v211c0,9.9,8.1,18,18,18h163.2c9.9,0,18-8.1,18-18v-211   C207.224,205.547,199.124,197.547,189.224,197.547z M16.324,426.447v-211c0-5.3,4.3-9.7,9.7-9.7h148.7c5.3,0,9.7,4.3,9.7,9.7v211   c0,5.3-4.3,9.7-9.7,9.7h-148.7C20.624,436.147,16.324,431.847,16.324,426.447z M198.924,426.447c0,5.1-4,9.3-9.1,9.7   c1.8-2.8,2.8-6.1,2.8-9.7v-211c0-3.6-1-6.9-2.8-9.7c5,0.3,9.1,4.5,9.1,9.7V426.447z"/>
</g>
<g>
	<ellipse style="fill:#473CBA;" cx="298.624" cy="454.847" rx="110" ry="9.6"/>
	<ellipse style="fill:#473CBA;" cx="102.324" cy="461.647" rx="81.6" ry="6.7"/>
	<ellipse style="fill:#473CBA;" cx="193.724" cy="504.247" rx="51.4" ry="7.8"/>
</g>
<path style="fill:#79A1E8;" d="M239.624,471.447h-73c-7.6,0-13.8-6.2-13.8-13.8v-140.1c0-7.6,6.2-13.8,13.8-13.8h73  c7.6,0,13.8,6.2,13.8,13.8v140.1C253.424,465.247,247.224,471.447,239.624,471.447z"/>
<path style="fill:#E1F0FA;" d="M226.624,471.447h-73c-7.6,0-13.8-6.2-13.8-13.8v-140.1c0-7.6,6.2-13.8,13.8-13.8h73  c7.6,0,13.8,6.2,13.8,13.8v140.1C240.424,465.247,234.224,471.447,226.624,471.447z"/>
<path style="fill:#CFDDF7;" d="M139.824,442.347v15.2c0,7.6,6.2,13.8,13.8,13.8h73c7.6,0,13.8-6.2,13.8-13.8v-115.8L139.824,442.347  z"/>
<rect x="153.824" y="320.147" style="fill:#7693DD;" width="72.6" height="124.5"/>
<polygon style="fill:#6382C9;" points="153.824,428.347 153.824,444.647 226.424,444.647 226.424,355.747 "/>
<path style="fill:#4B31AA;" d="M226.424,448.747h-72.6c-2.3,0-4.1-1.9-4.1-4.2v-124.4c0-2.3,1.9-4.2,4.1-4.2h72.6  c2.3,0,4.1,1.9,4.1,4.2v124.5C230.624,446.947,228.724,448.747,226.424,448.747z M157.924,440.447h64.3v-116.2h-64.3  L157.924,440.447L157.924,440.447z"/>
<rect x="168.824" y="337.047" style="fill:#F9D015;" width="41.5" height="33.7"/>
<path style="fill:#4B31AA;" d="M210.324,374.847h-41.5c-2.3,0-4.1-1.9-4.1-4.2v-33.7c0-2.3,1.9-4.2,4.1-4.2h41.5  c2.3,0,4.1,1.9,4.1,4.2v33.7C214.524,373.047,212.624,374.847,210.324,374.847z M173.024,366.547h33.2v-25.4h-33.2V366.547z"/>
<path style="fill:#F7931E;" d="M210.324,394.147h-41.5c-2.3,0-4.1-1.9-4.1-4.2s1.9-4.2,4.1-4.2h41.5c2.3,0,4.1,1.9,4.1,4.2  S212.624,394.147,210.324,394.147z"/>
<path style="fill:#D87819;" d="M210.324,394.147c2.3,0,4.1-1.9,4.1-4.2s-1.9-4.2-4.1-4.2h-14l-8.3,8.4H210.324L210.324,394.147z"/>
<g>
	<path style="fill:#4B31AA;" d="M210.324,409.647h-41.5c-2.3,0-4.1-1.9-4.1-4.2s1.9-4.2,4.1-4.2h41.5c2.3,0,4.1,1.9,4.1,4.2   S212.624,409.647,210.324,409.647z"/>
	<path style="fill:#4B31AA;" d="M210.324,425.247h-41.5c-2.3,0-4.1-1.9-4.1-4.2s1.9-4.2,4.1-4.2h41.5c2.3,0,4.1,1.9,4.1,4.2   S212.624,425.247,210.324,425.247z"/>
	<path style="fill:#4B31AA;" d="M239.624,299.547h-86c-9.9,0-18,8.1-18,18v140.1c0,9.9,8.1,18,18,18h85.9c9.9,0,18-8.1,18-18v-140.1   C257.524,307.647,249.524,299.547,239.624,299.547z M153.624,467.247c-5.3,0-9.7-4.3-9.7-9.7v-140c0-5.3,4.3-9.7,9.7-9.7h73   c5.3,0,9.7,4.3,9.7,9.7v140.1c0,5.3-4.3,9.7-9.7,9.7h-73V467.247z M249.224,457.647c0,4.5-3.1,8.3-7.3,9.4c1.7-2.7,2.7-5.9,2.7-9.4   v-140.1c0-3.4-1-6.7-2.7-9.4c4.2,1.1,7.3,4.9,7.3,9.4V457.647L249.224,457.647z"/>
</g>
<g>
</g>
<g>
</g>
<g>
</g>
<g>
</g>
<g>
</g>
<g>
</g>
<g>
</g>
<g>
</g>
<g>
</g>
<g>
</g>
<g>
</g>
<g>
</g>
<g>
</g>
<g>
</g>
<g>
</g>
</svg>
