<?xml version="1.0" encoding="iso-8859-1"?>
<!-- Generator: Adobe Illustrator 19.0.0, SVG Export Plug-In . SVG Version: 6.00 Build 0)  -->
<svg xmlns="http://www.w3.org/2000/svg" xmlns:xlink="http://www.w3.org/1999/xlink" version="1.1" id="Capa_1" x="0px" y="0px" viewBox="0 0 511.786 511.786" style="enable-background:new 0 0 511.786 511.786;" xml:space="preserve">
<ellipse style="fill:#473CBA;" cx="453.3" cy="490.459" rx="32.5" ry="9.5"/>
<path style="fill:#79A1E8;" d="M473.8,179.859c32.8-23.8,68.7-107.1-6.4-157s-199.5,29.2-267.3,7.3  c-67.1-21.7-223.9-44.9-161.6,140.6c48.9,145.6-66,243.5,48,289.6c113.9,46,253.6-98.2,265.8-187.1  C364.5,184.259,443.3,201.859,473.8,179.859z"/>
<polygon style="fill:#D7ECF9;" points="453.3,143.659 431.9,186.259 474.6,186.259 "/>
<polygon style="fill:#F9D015;" points="431.9,186.259 431.9,186.259 431.9,400.759 474.6,400.759 474.6,186.259 474.6,186.259 "/>
<path style="fill:#7693DD;" d="M431.9,400.759v20.6c0,11.8,9.6,21.4,21.4,21.4l0,0c11.8,0,21.4-9.6,21.4-21.4v-20.6H431.9z"/>
<path style="fill:#4B31AA;" d="M474.6,190.359h-42.7c-2.3,0-4.1-1.8-4.1-4.1s1.8-4.1,4.1-4.1h42.7c2.3,0,4.1,1.8,4.1,4.1  S476.9,190.359,474.6,190.359z"/>
<rect x="431.9" y="392.959" style="fill:#D7ECF9;" width="42.7" height="14.2"/>
<g>
	<path style="fill:#4B31AA;" d="M454,309.659c-2.3,0-4.1-1.8-4.1-4.1v-41.3c0-2.3,1.8-4.1,4.1-4.1c2.3,0,4.1,1.8,4.1,4.1v41.3   C458.1,307.759,456.3,309.659,454,309.659z"/>
	<path style="fill:#4B31AA;" d="M454,392.159c-2.3,0-4.1-1.8-4.1-4.1v-61.9c0-2.3,1.8-4.1,4.1-4.1c2.3,0,4.1,1.8,4.1,4.1v61.9   C458.1,390.359,456.3,392.159,454,392.159z"/>
</g>
<rect x="34.9" y="57.759" style="fill:#BFDAE8;" width="371.6" height="309.7"/>
<rect x="3.9" y="57.759" style="fill:#FFFFFF;" width="371.6" height="309.7"/>
<rect x="241.3" y="57.759" style="fill:#F7931E;" width="165.2" height="41.3"/>
<rect x="3.9" y="57.759" style="fill:#F9D015;" width="371.6" height="41.3"/>
<polygon style="fill:#CFDDF7;" points="375.5,57.759 339,57.759 29.3,367.459 375.5,367.459 "/>
<polygon style="fill:#DDB50E;" points="339,57.759 297.7,99.059 375.5,99.059 375.5,57.759 "/>
<path style="fill:#4B31AA;" d="M406.5,53.659h-57.8v-11.9c0-2.3-1.8-4.1-4.1-4.1s-4.1,1.8-4.1,4.1v11.9h-23.7v-11.9  c0-2.3-1.8-4.1-4.1-4.1c-2.3,0-4.1,1.8-4.1,4.1v11.9h-23.7v-11.9c0-2.3-1.8-4.1-4.1-4.1s-4.1,1.8-4.1,4.1v11.9H253v-11.9  c0-2.3-1.8-4.1-4.1-4.1s-4.1,1.8-4.1,4.1v11.9h-23.7v-11.9c0-2.3-1.8-4.1-4.1-4.1s-4.1,1.8-4.1,4.1v11.9h-23.7v-11.9  c0-2.3-1.8-4.1-4.1-4.1s-4.1,1.8-4.1,4.1v11.9h-23.7v-11.9c0-2.3-1.8-4.1-4.1-4.1c-2.3,0-4.1,1.8-4.1,4.1v11.9h-24.4v-11.9  c0-2.3-1.8-4.1-4.1-4.1s-4.1,1.8-4.1,4.1v11.9H92.7v-11.9c0-2.3-1.8-4.1-4.1-4.1s-4.1,1.8-4.1,4.1v11.9H60.7v-11.9  c0-2.3-1.8-4.1-4.1-4.1s-4.1,1.8-4.1,4.1v11.9H28.8v-11.9c0-2.3-1.8-4.1-4.1-4.1s-4.1,1.8-4.1,4.1v11.9H4.1c-2.3,0-4.1,1.8-4.1,4.1  v41.3v268.4c0,2.3,1.8,4.1,4.1,4.1h402.6c2.3,0,4.1-1.8,4.1-4.1v-309.7C410.6,55.459,408.8,53.659,406.5,53.659z M371.4,363.259H8.1  v-260.1H280h91.5v260.1H371.4z M371.4,94.959h-92.6H8.1v-33h12.4v11.9c0,2.3,1.8,4.1,4.1,4.1s4.1-1.8,4.1-4.1v-12h23.7v11.9  c0,2.3,1.8,4.1,4.1,4.1s4.1-1.8,4.1-4.1v-11.9h23.7v11.9c0,2.3,1.8,4.1,4.1,4.1s4.1-1.8,4.1-4.1v-11.9h23.7v11.9  c0,2.3,1.8,4.1,4.1,4.1s4.1-1.8,4.1-4.1v-11.9h23.7v11.9c0,2.3,1.8,4.1,4.1,4.1c2.3,0,4.1-1.8,4.1-4.1v-11.9H180v11.9  c0,2.3,1.8,4.1,4.1,4.1s4.1-1.8,4.1-4.1v-11.9h23.7v11.9c0,2.3,1.8,4.1,4.1,4.1s4.1-1.8,4.1-4.1v-11.9h23.7v11.9  c0,2.3,1.8,4.1,4.1,4.1s4.1-1.8,4.1-4.1v-11.9h22.8h1v11.9c0,2.3,1.8,4.1,4.1,4.1s4.1-1.8,4.1-4.1v-11.9h23.7v11.9  c0,2.3,1.8,4.1,4.1,4.1c2.3,0,4.1-1.8,4.1-4.1v-11.9h23.7v11.9c0,2.3,1.8,4.1,4.1,4.1c2.3,0,4.1-1.8,4.1-4.1v-11.9h22.7  L371.4,94.959L371.4,94.959z M402.4,363.259h-22.7v-260.1h22.7V363.259z M402.4,94.959h-22.7v-33h22.7V94.959z"/>
<g>
	<path style="fill:#7693DD;" d="M55.5,165.059c-1.1,0-2.1-0.4-2.9-1.2c-1.6-1.6-1.6-4.2,0-5.8l41.3-41.3c1.6-1.6,4.2-1.6,5.8,0   c1.6,1.6,1.6,4.2,0,5.8l-41.2,41.3C57.7,164.659,56.6,165.059,55.5,165.059z"/>
	<path style="fill:#7693DD;" d="M107.2,165.059c-1.1,0-2.1-0.4-2.9-1.2c-1.6-1.6-1.6-4.2,0-5.8l41.3-41.3c1.6-1.6,4.2-1.6,5.8,0   c1.6,1.6,1.6,4.2,0,5.8l-41.3,41.3C109.3,164.659,108.2,165.059,107.2,165.059z"/>
</g>
<path style="fill:#4B31AA;" d="M353.3,505.759c-2.3,0-4.1-1.8-4.1-4.1v-315.3c0-33.3-27.1-60.4-60.4-60.4h-5.2  c-33.3,0-60.4,27.1-60.4,60.4v34c0,2.3-1.8,4.1-4.1,4.1s-4.1-1.8-4.1-4.1v-34c0-37.9,30.8-68.6,68.6-68.6h5.2  c37.9,0,68.6,30.8,68.6,68.6v315.3C357.5,503.859,355.6,505.759,353.3,505.759z"/>
<path style="fill:#473CBA;" d="M372.4,429.359H91.7c-10.8,0-19.6-8.8-19.6-19.6v-187.9c0-10.8,8.8-19.6,19.6-19.6h280.8  c10.8,0,19.6,8.8,19.6,19.6v187.9C392.1,420.559,383.3,429.359,372.4,429.359z"/>
<path style="fill:#BBDAEA;" d="M351.8,429.359H71c-10.8,0-19.6-8.8-19.6-19.6v-187.9c0-10.8,8.8-19.6,19.6-19.6h280.8  c10.8,0,19.6,8.8,19.6,19.6v187.9C371.4,420.559,362.6,429.359,351.8,429.359z"/>
<path style="fill:#A2B9DD;" d="M351.8,202.259h-23.7L101,429.359h250.8c10.8,0,19.6-8.8,19.6-19.6v-187.9  C371.4,211.059,362.6,202.259,351.8,202.259z"/>
<rect x="125.7" y="233.259" style="fill:#FFFFFF;" width="216.8" height="165.2"/>
<polygon style="fill:#CFDDF7;" points="131.9,398.359 342.5,398.359 342.5,233.259 297.1,233.259 "/>
<path style="fill:#4B31AA;" d="M342.5,402.559H125.7c-2.3,0-4.1-1.8-4.1-4.1v-165.2c0-2.3,1.8-4.1,4.1-4.1h216.8  c2.3,0,4.1,1.8,4.1,4.1v165.2C346.6,400.659,344.8,402.559,342.5,402.559z M129.9,394.259h208.5v-156.9H129.9V394.259z"/>
<circle style="fill:#F9D015;" cx="90.6" cy="315.859" r="12.4"/>
<path style="fill:#4B31AA;" d="M90.6,332.359c-9.1,0-16.5-7.4-16.5-16.5s7.4-16.5,16.5-16.5c9.1,0,16.5,7.4,16.5,16.5  S99.7,332.359,90.6,332.359z M90.6,307.559c-4.6,0-8.3,3.7-8.3,8.3s3.7,8.3,8.3,8.3c4.6,0,8.3-3.7,8.3-8.3  S95.2,307.559,90.6,307.559z"/>
<rect x="72.1" y="269.359" style="fill:#13CECE;" width="35.1" height="20.6"/>
<path style="fill:#4B31AA;" d="M107.2,294.159H72.1c-2.3,0-4.1-1.8-4.1-4.1v-20.6c0-2.3,1.8-4.1,4.1-4.1h35.1c2.3,0,4.1,1.8,4.1,4.1  v20.6C111.3,292.259,109.4,294.159,107.2,294.159z M76.2,285.859H103v-12.4H76.2V285.859z"/>
<rect x="72.1" y="233.259" style="fill:#13CECE;" width="35.1" height="20.6"/>
<path style="fill:#4B31AA;" d="M107.2,257.959H72.1c-2.3,0-4.1-1.8-4.1-4.1v-20.6c0-2.3,1.8-4.1,4.1-4.1h35.1c2.3,0,4.1,1.8,4.1,4.1  v20.6C111.3,256.159,109.4,257.959,107.2,257.959z M76.2,249.759H103v-12.4H76.2V249.759z"/>
<rect x="72.1" y="377.759" style="fill:#13CECE;" width="35.1" height="20.6"/>
<path style="fill:#4B31AA;" d="M107.2,402.559H72.1c-2.3,0-4.1-1.8-4.1-4.1v-20.6c0-2.3,1.8-4.1,4.1-4.1h35.1c2.3,0,4.1,1.8,4.1,4.1  v20.6C111.3,400.659,109.4,402.559,107.2,402.559z M76.2,394.259H103v-12.4H76.2V394.259z"/>
<rect x="72.1" y="341.659" style="fill:#13CECE;" width="35.1" height="20.6"/>
<g>
	<path style="fill:#4B31AA;" d="M107.2,366.359H72.1c-2.3,0-4.1-1.8-4.1-4.1v-20.6c0-2.3,1.8-4.1,4.1-4.1h35.1   c2.3,0,4.1,1.8,4.1,4.1v20.6C111.3,364.559,109.4,366.359,107.2,366.359z M76.2,358.159H103v-12.4H76.2V358.159z"/>
	<path style="fill:#4B31AA;" d="M305,274.659c-1.1,0-2.1-0.4-2.9-1.2c-1.6-1.6-1.6-4.2,0-5.8l16.4-16.4c1.6-1.6,4.2-1.6,5.8,0   c1.6,1.6,1.6,4.2,0,5.8l-16.4,16.4C307.1,274.259,306.1,274.659,305,274.659z"/>
	<path style="fill:#4B31AA;" d="M161.8,274.659c-1.1,0-2.1-0.4-2.9-1.2l-16.4-16.4c-1.6-1.6-1.6-4.2,0-5.8c1.6-1.6,4.2-1.6,5.8,0   l16.4,16.4c1.6,1.6,1.6,4.2,0,5.8C163.9,274.259,162.9,274.659,161.8,274.659z"/>
	<path style="fill:#4B31AA;" d="M145.5,382.859c-1.1,0-2.1-0.4-2.9-1.2c-1.6-1.6-1.6-4.2,0-5.8l16.4-16.4c1.6-1.6,4.2-1.6,5.8,0   c1.6,1.6,1.6,4.2,0,5.8l-16.4,16.4C147.6,382.459,146.5,382.859,145.5,382.859z"/>
	<path style="fill:#4B31AA;" d="M321.4,382.859c-1.1,0-2.1-0.4-2.9-1.2l-16.4-16.4c-1.6-1.6-1.6-4.2,0-5.8c1.6-1.6,4.2-1.6,5.8,0   l16.4,16.4c1.6,1.6,1.6,4.2,0,5.8C323.5,382.459,322.4,382.859,321.4,382.859z"/>
	<path style="fill:#4B31AA;" d="M372.4,198.159h-20.6H71c-13.1,0-23.7,10.6-23.7,23.7v187.9c0,13.1,10.7,23.7,23.7,23.7h280.8l0,0   h20.6c13.1,0,23.7-10.7,23.7-23.7v-187.9C396.2,208.759,385.5,198.159,372.4,198.159z M71,425.259c-8.5,0-15.5-6.9-15.5-15.5   v-187.9c0-8.5,6.9-15.5,15.5-15.5h280.8c8.5,0,15.5,6.9,15.5,15.5v187.9c0,8.5-6.9,15.5-15.5,15.5H71L71,425.259z M387.9,409.759   c0,8.5-6.9,15.5-15.5,15.5h-2.6c3.6-4.2,5.8-9.6,5.8-15.5v-187.9c0-5.9-2.2-11.3-5.8-15.5h2.7c8.5,0,15.5,6.9,15.5,15.5v187.9   H387.9z"/>
	<path style="fill:#4B31AA;" d="M478.8,186.259C478.8,186.159,478.8,186.159,478.8,186.259c0-0.3,0-0.6-0.1-0.8c0,0,0,0,0-0.1   c0-0.2-0.1-0.5-0.2-0.7c0-0.1,0-0.1-0.1-0.2c0-0.1,0-0.1-0.1-0.2l-20.9-41.7v-3.4c0-2.3-1.8-4.1-4.1-4.1c-2.3,0-4.1,1.8-4.1,4.1   v3.4l-20.9,41.7c0,0.1,0,0.1-0.1,0.2c0,0.1-0.1,0.1-0.1,0.2c-0.1,0.2-0.2,0.4-0.2,0.7c0,0,0,0,0,0.1c0,0.2-0.1,0.5-0.1,0.7v0.1   v235.2c0,14.1,11.4,25.5,25.5,25.5c14.1,0,25.5-11.4,25.5-25.5L478.8,186.259L478.8,186.259z M453.3,152.859l14.7,29.3h-29.4   L453.3,152.859z M470.5,190.359v198.4H436v-198.4H470.5z M436,403.059v-6h34.5v6H436z M453.3,438.659c-9.5,0-17.2-7.7-17.2-17.2   v-10.1h34.5v10.1C470.5,430.959,462.8,438.659,453.3,438.659z"/>
</g>
<ellipse style="fill:#473CBA;" cx="202.6" cy="490.459" rx="134.2" ry="9.5"/>
<g>
	<path style="fill:#4B31AA;" d="M14.3,443.859c-2.3,0-4.1-1.8-4.1-4.1v-31c0-2.3,1.8-4.1,4.1-4.1s4.1,1.8,4.1,4.1v31   C18.4,441.959,16.5,443.859,14.3,443.859z"/>
	<path style="fill:#4B31AA;" d="M34.9,474.759c-2.3,0-4.1-1.8-4.1-4.1v-31c0-2.3,1.8-4.1,4.1-4.1c2.3,0,4.1,1.8,4.1,4.1v31   C39,472.959,37.2,474.759,34.9,474.759z"/>
	<path style="fill:#4B31AA;" d="M453.3,103.159c-2.3,0-4.1-1.8-4.1-4.1v-31c0-2.3,1.8-4.1,4.1-4.1c2.3,0,4.1,1.8,4.1,4.1v31   C457.4,101.359,455.6,103.159,453.3,103.159z"/>
</g>
<g>
</g>
<g>
</g>
<g>
</g>
<g>
</g>
<g>
</g>
<g>
</g>
<g>
</g>
<g>
</g>
<g>
</g>
<g>
</g>
<g>
</g>
<g>
</g>
<g>
</g>
<g>
</g>
<g>
</g>
</svg>
