<?xml version="1.0" encoding="iso-8859-1"?>
<!-- Generator: Adobe Illustrator 19.0.0, SVG Export Plug-In . SVG Version: 6.00 Build 0)  -->
<svg xmlns="http://www.w3.org/2000/svg" xmlns:xlink="http://www.w3.org/1999/xlink" version="1.1" id="Capa_1" x="0px" y="0px" viewBox="0 0 512.016 512.016" style="enable-background:new 0 0 512.016 512.016;" xml:space="preserve">
<path style="fill:#79A1E8;" d="M468.716,172.958c34.3-22.2,72.2-99.5-5.9-145.4s-236.3,56.5-294.3,15.7s-217.7-48.1-153.6,123.4  c50.3,134.5,14.7,209,105,245c116.8,46.6,177.1-62,190.3-144.4C323.416,184.858,436.816,193.558,468.716,172.958z"/>
<path style="fill:#473CBA;" d="M284.716,318.258h-213.6c-9.4,0-17-7.6-17-17v-279c0-9.4,7.6-17,17-17h213.6c9.4,0,17,7.6,17,17v279  C301.716,310.558,294.116,318.258,284.716,318.258z"/>
<path style="fill:#C4E0F8;" d="M271.816,318.258h-213.5c-9.4,0-17-7.6-17-17v-279c0-9.4,7.6-17,17-17h213.6c9.4,0,17,7.6,17,17v279  C288.816,310.558,281.216,318.258,271.816,318.258z"/>
<path style="fill:#FBB03B;" d="M271.816,87.758h-213.5c-9.4,0-17-7.6-17-17v-48.5c0-9.4,7.6-17,17-17h213.6c9.4,0,17,7.6,17,17v48.5  C288.816,80.158,281.216,87.758,271.816,87.758z"/>
<path style="fill:#9CC4E2;" d="M41.216,269.358v31.8c0,9.4,7.6,17,17,17h213.6c9.4,0,17-7.6,17-17v-222.2L41.216,269.358z"/>
<g>
	<path style="fill:#4B31AA;" d="M152.516,108.658c-0.9,0-1.8-0.3-2.6-0.9c-1.9-1.4-2.2-4.1-0.8-6l23.6-31.2c1.4-1.9,4.1-2.3,6-0.8   c1.9,1.4,2.2,4.1,0.8,6l-23.6,31.2C155.116,108.058,153.816,108.658,152.516,108.658z"/>
	<path style="fill:#4B31AA;" d="M177.516,108.658c-1.3,0-2.6-0.6-3.4-1.7l-23.6-31.2c-1.4-1.9-1.1-4.6,0.8-6c1.9-1.4,4.6-1.1,6,0.8   l23.6,31.2c1.4,1.9,1.1,4.6-0.8,6C179.316,108.358,178.416,108.658,177.516,108.658z"/>
</g>
<circle style="fill:#F9D015;" cx="165.016" cy="62.458" r="15.5"/>
<path style="fill:#4B31AA;" d="M165.016,82.158c-10.9,0-19.7-8.9-19.7-19.7s8.9-19.7,19.7-19.7c10.9,0,19.7,8.9,19.7,19.7  S175.916,82.158,165.016,82.158z M165.016,51.258c-6.2,0-11.2,5-11.2,11.2s5,11.2,11.2,11.2s11.2-5,11.2-11.2  S171.216,51.258,165.016,51.258z"/>
<circle style="fill:#F9D015;" cx="165.016" cy="113.558" r="15.5"/>
<g>
	<path style="fill:#4B31AA;" d="M165.016,133.258c-10.9,0-19.7-8.9-19.7-19.7c0-10.9,8.9-19.7,19.7-19.7c10.9,0,19.7,8.9,19.7,19.7   C184.816,124.458,175.916,133.258,165.016,133.258z M165.016,102.358c-6.2,0-11.2,5-11.2,11.2s5,11.2,11.2,11.2s11.2-5,11.2-11.2   S171.216,102.358,165.016,102.358z"/>
	<path style="fill:#4B31AA;" d="M139.516,208.658h-64c-2.4,0-4.3-1.9-4.3-4.3s1.9-4.3,4.3-4.3h64c2.4,0,4.3,1.9,4.3,4.3   C143.716,206.758,141.816,208.658,139.516,208.658z"/>
	<path style="fill:#4B31AA;" d="M96.816,230.058h-21.4c-2.4,0-4.3-1.9-4.3-4.3s1.9-4.3,4.3-4.3h21.3c2.4,0,4.3,1.9,4.3,4.3   S99.116,230.058,96.816,230.058z"/>
	<path style="fill:#4B31AA;" d="M107.516,187.358h-32c-2.4,0-4.3-1.9-4.3-4.3s1.9-4.3,4.3-4.3h32c2.4,0,4.3,1.9,4.3,4.3   C111.716,185.458,109.816,187.358,107.516,187.358z"/>
	<path style="fill:#4B31AA;" d="M284.716,0.958h-226.4c-11.8,0-21.3,9.5-21.3,21.3v279c0,11.7,9.6,21.3,21.3,21.3h213.6h12.8   c11.7,0,21.3-9.6,21.3-21.3v-279C306.016,10.458,296.416,0.958,284.716,0.958z M45.516,22.258c0-7,5.7-12.8,12.8-12.8h213.6   c6.2,0,11.3,4.4,12.5,10.2c0.2,0.8,0.3,1.7,0.3,2.6v48.5c0,7-5.7,12.8-12.8,12.8h-213.6c-7,0-12.8-5.7-12.8-12.8   C45.516,70.758,45.516,22.258,45.516,22.258z M58.316,313.958c-7,0-12.8-5.7-12.8-12.8v-213.4c3.6,2.7,8,4.3,12.8,4.3h213.6   c4.8,0,9.2-1.6,12.8-4.3v213.4c0,7-5.7,12.8-12.8,12.8H58.316z M297.416,301.158c0,5.3-3.3,9.9-7.9,11.8c2.3-3.4,3.6-7.4,3.6-11.8   v-230.4v-48.5c0-4.4-1.3-8.4-3.6-11.8c4.6,1.9,7.9,6.5,7.9,11.8V301.158z"/>
</g>
<ellipse style="fill:#473CBA;" cx="151.716" cy="501.158" rx="76.3" ry="9.9"/>
<path style="fill:#4B31AA;" d="M482.316,497.258h-39.3c-21.2,0-38.4-17.2-38.4-38.4v-2.7c0-10.3,4-19.9,11.2-27.2  c7.3-7.3,16.9-11.2,27.2-11.2l0,0h30.6c16.5,0,29.9-13.4,29.9-29.9s-13.4-29.9-29.9-29.9h-142c-2.4,0-4.3-1.9-4.3-4.3  c0-2.4,1.9-4.3,4.3-4.3h142c21.2,0,38.4,17.2,38.4,38.4s-17.2,38.4-38.4,38.4h-30.6l0,0c-8,0-15.5,3.1-21.1,8.7s-8.7,13.1-8.7,21.1  v2.7c0,16.5,13.4,29.9,29.9,29.9h39.3c2.4,0,4.3,1.9,4.3,4.3C486.616,495.358,484.616,497.258,482.316,497.258z"/>
<path style="fill:#473CBA;" d="M470.916,324.558h-179.8c-15.7,0-28.5-12.8-28.5-28.5v-132.5c0-15.7,12.8-28.5,28.5-28.5h179.8  c15.7,0,28.5,12.8,28.5,28.5v132.5C499.416,311.858,486.616,324.558,470.916,324.558z"/>
<path style="fill:#FFFFFF;" d="M478.416,163.558c0-15.7-12.8-28.5-28.5-28.5h-179.9c-15.7,0-28.5,12.8-28.5,28.5v111.1h236.9  V163.558L478.416,163.558z"/>
<path style="fill:#79A1E8;" d="M241.516,274.658v21.4c0,15.7,12.8,28.5,28.5,28.5h179.8c15.7,0,28.5-12.8,28.5-28.5v-21.4H241.516z"/>
<path style="fill:#CFDDF7;" d="M478.416,163.558c0-14.9-11.4-27.1-25.9-28.4l-176.9,139.5h202.8L478.416,163.558L478.416,163.558z"/>
<polygon style="fill:#F9D015;" points="340.916,174.658 396.416,213.158 340.916,251.558 "/>
<polygon style="fill:#DDB510;" points="373.716,197.358 340.916,223.158 340.916,251.558 396.416,213.158 "/>
<path style="fill:#4B31AA;" d="M340.916,255.858c-0.7,0-1.4-0.2-2-0.5c-1.4-0.7-2.3-2.2-2.3-3.8v-76.9c0-1.6,0.9-3,2.3-3.8  c1.4-0.7,3.1-0.6,4.4,0.3l55.5,38.5c1.2,0.8,1.8,2.1,1.8,3.5s-0.7,2.7-1.8,3.5l-55.5,38.5  C342.616,255.558,341.816,255.858,340.916,255.858z M345.216,182.858v60.6l43.7-30.3L345.216,182.858z"/>
<path style="fill:#3B2991;" d="M338.916,255.358c0.6,0.3,1.3,0.5,2,0.5c0.9,0,1.7-0.3,2.4-0.8l55.5-38.5c1.2-0.8,1.8-2.1,1.8-3.5  s-0.7-2.7-1.8-3.5l-21.7-15l-7,5.5l18.8,13l-43.7,30.3v-23.6l-8.5,6.7v25C336.716,253.158,337.516,254.658,338.916,255.358z"/>
<path style="fill:#4B31AA;" d="M470.916,130.858h-200.9c-18.1,0-32.8,14.7-32.8,32.8v132.5c0,18.1,14.7,32.8,32.8,32.8h179.8h21  c18.1,0,32.8-14.7,32.8-32.8v-132.6C503.716,145.558,489.016,130.858,470.916,130.858z M245.816,163.558c0-13.4,10.9-24.2,24.2-24.2  h179.8c13.4,0,24.2,10.9,24.2,24.2v106.8h-27v-5c0-2.4-1.9-4.3-4.3-4.3s-4.3,1.9-4.3,4.3v5h-192.6V163.558z M270.016,320.358  c-13.4,0-24.2-10.9-24.2-24.2v-14.6h192.8v7.6c0,2.4,1.9,4.3,4.3,4.3s4.3-1.9,4.3-4.3v-7.6h27v14.6c0,13.4-10.9,24.2-24.2,24.2  H270.016z M495.116,296.058c0,13-10.3,23.7-23.2,24.2c6.6-6,10.7-14.6,10.7-24.2v-132.5c0-9.6-4.1-18.2-10.7-24.2  c12.9,0.5,23.2,11.2,23.2,24.2V296.058L495.116,296.058z"/>
<polygon style="fill:#D7ECF9;" points="89.816,351.858 130.116,467.358 190.516,467.358 138.716,340.258 "/>
<polygon style="fill:#FFFFFF;" points="74.816,351.858 115.116,467.358 167.516,467.358 115.716,340.258 "/>
<path style="fill:#473CBA;" d="M122.416,266.658h-27.2c-28,0-50.7,22.7-50.7,50.7s22.7,50.7,50.7,50.7h25.7"/>
<path style="fill:#FFFFFF;" d="M160.316,250.658l-46.1,15.4c-2.7,16.6-4.2,36.1-4.2,57c0,16.4,1,32,2.7,46l49.1,19.7l109.4,43.7  v-218.8L160.316,250.658z"/>
<polygon style="fill:#CFDDF7;" points="122.316,372.858 161.816,388.658 271.116,432.358 271.116,246.458 "/>
<ellipse style="fill:#7693DD;" cx="275.716" cy="323.058" rx="28.8" ry="109.4"/>
<path style="fill:#F7931E;" d="M247.516,301.758h21.3c11.8,0,21.3,9.5,21.3,21.3l0,0c0,11.8-9.5,21.3-21.3,21.3h-21.3V301.758  L247.516,301.758z"/>
<g>
	<path style="fill:#4B31AA;" d="M272.716,209.558c0,0-160.5,52.7-160.8,52.8h-16.7c-30.3,0-54.9,24.6-54.9,54.9   c0,23.6,15,43.8,36,51.6l34.8,99.9c0.6,1.7,2.2,2.9,4,2.9h75.4c1.4,0,2.8-0.7,3.5-1.9c0.8-1.2,0.9-2.7,0.4-4l-28.9-70.9l104,41.6   c0.5,0.2,5.2,0.3,6.2,0.3c21.7,0,33-57.2,33-113.6C308.816,266.558,300.016,209.558,272.716,209.558z M259.716,221.958   c-11.3,19.9-17.1,60.7-17.1,101.1c0,39.7,5.6,79.7,16.5,100l-142.6-57c-1.5-13.6-2.3-28-2.3-42.9c0-19,1.3-37.5,3.8-53.8l43.7-14.6   L259.716,221.958z M251.816,305.958h17c9.4,0,17,7.6,17,17s-7.6,17-17,17h-17V305.958z M48.816,317.258c0-25.6,20.8-46.4,46.4-46.4   h13.9c-2.3,16-3.4,33.9-3.4,52.1c0,14.1,0.7,27.7,2,40.6h-12.5C69.616,363.658,48.816,342.858,48.816,317.258z M140.716,463.058   h-22.5l-31.9-91.6c2.9,0.5,5.9,0.7,9,0.7h14.6c0.4,0.3,0.8,0.6,1.2,0.8l16,6.4l34.1,83.7L140.716,463.058L140.716,463.058z    M184.216,463.058h-13.8l-32.4-79.3l16.5,6.6L184.216,463.058z M275.716,428.158c-4,0-10.6-7.6-16.2-28.8   c-3.7-14.2-6.3-31.6-7.5-50.7h16.8c14.1,0,25.6-11.5,25.6-25.6s-11.5-25.6-25.6-25.6h-16.8c1.2-19.1,3.8-36.5,7.5-50.7   c5.6-21.3,12.2-28.8,16.2-28.8s10.6,7.6,16.2,28.8c5.3,20.3,8.3,47.4,8.3,76.2c0,28.9-2.9,55.9-8.3,76.2   C286.316,420.558,279.716,428.158,275.716,428.158z"/>
	<path style="fill:#4B31AA;" d="M384.916,399.558h-64c-2.4,0-4.3-1.9-4.3-4.3c0-2.4,1.9-4.3,4.3-4.3h64c2.4,0,4.3,1.9,4.3,4.3   C389.216,397.658,387.316,399.558,384.916,399.558z"/>
</g>
<g>
</g>
<g>
</g>
<g>
</g>
<g>
</g>
<g>
</g>
<g>
</g>
<g>
</g>
<g>
</g>
<g>
</g>
<g>
</g>
<g>
</g>
<g>
</g>
<g>
</g>
<g>
</g>
<g>
</g>
</svg>
