<?xml version="1.0" encoding="utf-8"?>
<!-- Generator: Adobe Illustrator 21.1.0, SVG Export Plug-In . SVG Version: 6.00 Build 0)  -->
<svg version="1.1" id="Capa_1" xmlns="http://www.w3.org/2000/svg" xmlns:xlink="http://www.w3.org/1999/xlink" x="0px" y="0px"
	 viewBox="0 0 512 512" style="enable-background:new 0 0 512 512;" xml:space="preserve">
<style type="text/css">
	.st0{fill:#79A1E8;}
	.st1{fill:#473CBA;}
	.st2{fill:#FFFFFF;}
	.st3{fill:#CFDDF7;}
	.st4{fill:#4B31AA;}
	.st5{fill:#E1F0FA;}
	.st6{fill:#C0D1ED;}
	.st7{fill:#7693DD;}
	.st8{fill:#5C82C6;}
	.st9{fill:#F9D015;}
</style>
<path class="st0" d="M480.4,222.2C601.3,327,344.3,525.3,230.3,413.1C81.3,266.2,0,375.6,0,215.6S22.1,96.5,190.9,24.8
	C338.1-37.8,335.5,96.5,480.4,222.2z"/>
<ellipse class="st1" cx="258.6" cy="496.6" rx="120.9" ry="6.5"/>
<path class="st2" d="M63.9,409.5L63.9,409.5l0-241.9c0-20.7,16.7-37.4,37.4-37.4h326.9c20.7,0,37.4,16.7,37.4,37.4l0,241.9l0,0H63.9
	z"/>
<path class="st3" d="M465.6,167.5c0-20.7-16.7-37.4-37.4-37.4h-6L142.9,409.5h322.7L465.6,167.5z"/>
<g>
	<path class="st1" d="M465.6,168.7c0,20.7-16.7,37.4-37.4,37.4h-40.6v240.8h40.6c20.7,0,37.4-16.7,37.4-37.4L465.6,168.7z"/>
	<path class="st1" d="M63.9,168.7c0,20.7,16.7,37.4,37.4,37.4h40.6v240.8h-40.6c-20.7,0-37.4-16.7-37.4-37.4L63.9,168.7z"/>
</g>
<path class="st4" d="M469.8,167.5c0-11.1-4.3-21.6-12.2-29.4c-7.9-7.9-18.3-12.2-29.4-12.2H101.3c0,0,0,0,0,0
	c-11.1,0-21.6,4.3-29.4,12.2c-7.9,7.9-12.2,18.3-12.2,29.4l0,80.7l0,161.2c0,23,18.7,41.6,41.6,41.6h40.6c2.3,0,4.2-1.9,4.2-4.2
	v-33.2h237.3v33.2c0,2.3,1.9,4.2,4.2,4.2h40.6c23,0,41.6-18.7,41.6-41.6v-17l0,0L469.8,167.5z M137.6,442.6h-36.3
	c-18.3,0-33.2-14.9-33.2-33.2v-29.8h0l0-125.1v-60.8c7.6,10,19.6,16.5,33.2,16.5h36.3V442.6L137.6,442.6z M383.4,206v199.2H146.1
	V206c0-2.3-1.9-4.2-4.2-4.2h-40.6c-18.3,0-33.2-14.9-33.2-33.2c0,0,0,0,0,0v-1.1c0-8.9,3.4-17.2,9.7-23.4c6.3-6.3,14.6-9.7,23.4-9.7
	h326.9c8.9,0,17.2,3.4,23.4,9.7c6.3,6.3,9.7,14.6,9.7,23.4v1.1c0,0,0,0,0,0c0,18.3-14.9,33.2-33.2,33.2h-40.6
	C385.3,201.8,383.4,203.7,383.4,206z M428.2,442.6h-36.3V210.3h36.3c13.5,0,25.5-6.5,33.2-16.5l0,215.7
	C461.4,427.7,446.5,442.6,428.2,442.6z"/>
<path class="st0" d="M323.4,452h-99.7c-10.4,0-18.9-8.5-18.9-18.9V241.8c0-10.4,8.5-18.9,18.9-18.9h99.7c10.4,0,18.9,8.5,18.9,18.9
	v191.3C342.3,443.5,333.8,452,323.4,452z"/>
<path class="st5" d="M305.7,452h-99.7c-10.4,0-18.9-8.5-18.9-18.9V241.8c0-10.4,8.5-18.9,18.9-18.9h99.7c10.4,0,18.9,8.5,18.9,18.9
	v191.3C324.6,443.5,316.1,452,305.7,452z"/>
<path class="st6" d="M187.2,414.5v18.6c0,10.4,8.5,18.9,18.9,18.9h99.7c10.4,0,18.9-8.5,18.9-18.9V277L187.2,414.5z"/>
<path class="st4" d="M323.4,217.5h-17.7h-68.1h-31.5c-13.4,0-24.3,10.9-24.3,24.3v191.3c0,13.4,10.9,24.3,24.3,24.3h28.1h71.6h17.7
	c13.4,0,24.3-10.9,24.3-24.3V241.8C347.7,228.4,336.8,217.5,323.4,217.5z M234.6,446.5h-28.6c-7.4,0-13.5-6-13.5-13.5V241.8
	c0-7.4,6-13.5,13.5-13.5h35.5h64.2c7.4,0,13.5,6,13.5,13.5v191.3c0,7.4-6,13.5-13.5,13.5L234.6,446.5L234.6,446.5z M336.9,433.1
	c0,6.5-4.6,11.9-10.8,13.2c2.5-3.8,3.9-8.3,3.9-13.2V241.8c0-4.9-1.4-9.4-3.9-13.2c6.1,1.3,10.8,6.7,10.8,13.2V433.1z"/>
<rect x="206.3" y="245.3" class="st7" width="99.2" height="170"/>
<polygon class="st8" points="206.3,395.3 206.3,415.4 305.5,415.4 305.5,296.2 "/>
<path class="st4" d="M305.5,420.8h-99.2c-3,0-5.4-2.4-5.4-5.4v-170c0-3,2.4-5.4,5.4-5.4h99.2c3,0,5.4,2.4,5.4,5.4v170
	C310.9,418.4,308.5,420.8,305.5,420.8z M211.7,409.9H300V250.8h-88.3V409.9z"/>
<rect x="226.8" y="268.5" class="st9" width="56.7" height="46"/>
<path class="st4" d="M283.5,319.9h-56.7c-3,0-5.4-2.4-5.4-5.4v-46c0-3,2.4-5.4,5.4-5.4h56.7c3,0,5.4,2.4,5.4,5.4v46
	C288.9,317.4,286.5,319.9,283.5,319.9z M232.3,309h45.8v-35.1h-45.8L232.3,309L232.3,309z"/>
</svg>
