<?xml version="1.0" encoding="iso-8859-1"?>
<!-- Generator: Adobe Illustrator 19.0.0, SVG Export Plug-In . SVG Version: 6.00 Build 0)  -->
<svg xmlns="http://www.w3.org/2000/svg" xmlns:xlink="http://www.w3.org/1999/xlink" version="1.1" id="Capa_1" x="0px" y="0px" viewBox="0 0 512 512" style="enable-background:new 0 0 512 512;" xml:space="preserve">
<path style="fill:#79A1E8;" d="M439.169,84.537c140.168,32.58,19.073,298.362-118.749,256.965  c-180.302-54.157-211.401,73.513-278.623-53.726S21.647,177.172,125.794,49.17C216.616-62.454,271.031,45.455,439.169,84.537z"/>
<g>
	<rect x="83.34" y="187.638" style="fill:#D7ECF9;" width="32.426" height="25.599"/>
	<path style="fill:#D7ECF9;" d="M73.954,246.943l14.405,234.604c0.296,4.828,4.298,8.592,9.135,8.592l0,0   c4.776,0,8.748-3.672,9.124-8.432l18.534-234.764L73.954,246.943L73.954,246.943z"/>
</g>
<path style="fill:#AACFE2;" d="M79.832,342.669l8.528,138.879c0.296,4.828,4.298,8.591,9.136,8.591c4.776,0,8.748-3.672,9.124-8.432  l14.214-180.039L79.832,342.669z"/>
<path style="fill:#F9D015;" d="M116.264,209.397H82.842c-4.909,0-8.889,3.98-8.889,8.889v28.657h51.199v-28.657  C125.153,213.377,121.173,209.397,116.264,209.397z"/>
<path style="fill:#FFFFFF;" d="M63.137,157.95c0-20.112,36.416-72.832,36.416-72.832s36.416,52.72,36.416,72.832  s-16.304,36.416-36.416,36.416S63.137,178.062,63.137,157.95z"/>
<path style="fill:#473CBA;" d="M78.802,162.997c5.168-12.059,14.642-23.256,25.84-24.978c8.491-1.788,15.575-4.981,20.923-9.792  c-10.763-21.032-26.011-43.109-26.011-43.109s-36.416,52.72-36.416,72.832c0,6.354,1.631,12.326,4.492,17.526  C72.568,172.38,76.537,168.175,78.802,162.997z"/>
<path style="fill:#4B31AA;" d="M119.767,205.894v-12.968c12.065-7,20.203-20.052,20.203-34.977  c0-20.759-33.326-69.605-37.126-75.105c-0.747-1.081-1.977-1.727-3.291-1.727c-1.315,0-2.544,0.646-3.291,1.727  c-3.8,5.501-37.125,54.347-37.125,75.105c0,14.925,8.138,27.977,20.203,34.977v12.968c-5.408,1.531-9.387,6.501-9.387,12.392v28.657  c0,0.043,0.011,0.083,0.013,0.126c0.001,0.04-0.007,0.079-0.005,0.119l14.406,234.605c0.424,6.923,6.19,12.347,13.127,12.347  c6.817,0,12.576-5.323,13.111-12.118l18.534-234.764c0.004-0.051-0.006-0.101-0.004-0.151c0.002-0.055,0.016-0.107,0.016-0.163  v-28.657C129.153,212.395,125.174,207.425,119.767,205.894z M69.207,169.336c-0.013-0.035-0.028-0.069-0.041-0.104  c-0.124-0.346-0.228-0.698-0.344-1.047c-0.004,0.008-0.008,0.015-0.012,0.023c-1.08-3.227-1.673-6.674-1.673-10.259  c0-13.971,21.027-48.533,32.416-65.69c5.859,8.827,14.266,22.26,21.052,35.127c-0.114-0.014-0.229-0.023-0.342-0.039  c-4.322,3.084-9.798,5.348-16.343,6.737c-13.502,2.144-23.718,15.504-28.787,27.324C73.846,164.34,71.83,167.028,69.207,169.336z   M73.02,176.538c4.214-3.319,7.454-7.383,9.447-11.938c0.004-0.01,0.008-0.019,0.012-0.028c5.322-12.42,14.261-21.291,22.771-22.601  c0.072-0.011,0.144-0.023,0.216-0.039c7.318-1.54,13.561-4.092,18.676-7.57c4.602,9.496,7.828,18.12,7.828,23.586  c0,17.875-14.542,32.417-32.417,32.417C88.591,190.366,78.89,184.892,73.02,176.538z M99.553,198.366  c4.256,0,8.358-0.665,12.214-1.891v8.922H87.34v-8.922C91.195,197.701,95.297,198.366,99.553,198.366z M77.953,218.286  c0-2.695,2.193-4.889,4.889-4.889h33.422c2.695,0,4.889,2.193,4.889,4.889v24.657H77.953L77.953,218.286L77.953,218.286z   M102.631,481.393c-0.21,2.662-2.466,4.747-5.137,4.747c-2.717,0-4.976-2.124-5.143-4.837L78.206,250.943h42.618L102.631,481.393z"/>
<path style="fill:#D7ECF9;" d="M450.025,333.389H242.822c-35.404,0-64.105-28.701-64.105-64.105v0  c0-35.404,28.701-64.105,64.105-64.105h207.202V333.389z"/>
<rect x="387.655" y="223.807" style="fill:#13CECE;" width="43.658" height="90.955"/>
<path style="fill:#4B31AA;" d="M431.314,318.762h-43.658c-2.209,0-4-1.791-4-4v-90.955c0-2.209,1.791-4,4-4h43.658  c2.209,0,4,1.791,4,4v90.955C435.314,316.971,433.523,318.762,431.314,318.762z M391.656,310.762h35.658v-82.955h-35.658V310.762z"/>
<rect x="321.647" y="223.807" style="fill:#55E0DC;" width="43.658" height="90.955"/>
<path style="fill:#4B31AA;" d="M365.306,318.762h-43.658c-2.209,0-4-1.791-4-4v-90.955c0-2.209,1.791-4,4-4h43.658  c2.209,0,4,1.791,4,4v90.955C369.306,316.971,367.515,318.762,365.306,318.762z M325.648,310.762h35.658v-82.955h-35.658V310.762z"/>
<path style="fill:#E1F0FA;" d="M435.768,167.097L289.255,313.614c-25.034,25.035-65.623,25.036-90.657,0.001l0,0  c-25.034-25.034-25.035-65.624,0-90.658L345.11,76.439L435.768,167.097z"/>
<path style="fill:#AACFE2;" d="M206.29,215.264l-7.692,7.692c-25.034,25.035-25.034,65.624,0,90.659h0  c25.034,25.034,65.623,25.034,90.657-0.001l146.513-146.517l-4.611-4.611L206.29,215.264z"/>
<polygon style="fill:#473CBA;" points="378.495,198.028 409.366,167.156 345.051,102.841 314.18,133.713 "/>
<path style="fill:#4B31AA;" d="M378.495,202.028c-1.061,0-2.078-0.422-2.828-1.172l-64.315-64.314c-1.562-1.562-1.562-4.095,0-5.656  l30.871-30.872c0.75-0.75,1.768-1.172,2.828-1.172c1.061,0,2.078,0.422,2.828,1.172l64.315,64.314c1.562,1.562,1.562,4.095,0,5.656  l-30.871,30.872C380.574,201.606,379.556,202.028,378.495,202.028z M319.837,133.714l58.658,58.657l25.214-25.215l-58.658-58.657  L319.837,133.714z"/>
<polygon style="fill:#5350CC;" points="331.821,244.704 362.692,213.832 298.377,149.517 267.506,180.389 "/>
<path style="fill:#4B31AA;" d="M331.822,248.704c-1.061,0-2.078-0.422-2.828-1.172l-64.315-64.315c-1.562-1.562-1.562-4.095,0-5.656  l30.871-30.872c0.75-0.75,1.768-1.172,2.828-1.172c1.061,0,2.078,0.422,2.828,1.172l64.315,64.315c1.562,1.562,1.562,4.095,0,5.656  l-30.871,30.872C333.9,248.282,332.882,248.704,331.822,248.704z M273.163,180.389l58.658,58.658l25.214-25.215l-58.658-58.658  L273.163,180.389z"/>
<path style="fill:#FFFFFF;" d="M305.542,61.786l0.003,207.204c0.001,35.404-28.699,64.106-64.103,64.106h0  c-35.404,0.001-64.105-28.7-64.105-64.104l-0.003-207.204L305.542,61.786z"/>
<path style="fill:#CFDDF7;" d="M177.337,233.83l0.001,35.162c0.001,35.404,28.701,64.105,64.105,64.104h0  c35.404-0.001,64.104-28.702,64.103-64.106l-0.002-163.366L177.337,233.83z"/>
<path style="fill:#4B31AA;" d="M173.337,275.853c0.035,37.523,31.954,74.901,69.485,74.901h207.202c2.209,0,4-1.791,4-4v-13.365  v-0.221V205.18c0-2.209-1.791-4-4-4h-24.505l22.166-22.166c1.562-1.562,1.562-4.095,0-5.656l-10.835-10.835h0l-88.911-88.911  c-0.75-0.75-1.768-1.172-2.828-1.172s-2.078,0.422-2.828,1.172l-22.047,22.048l-0.001-33.873c0-1.061-0.422-2.078-1.172-2.828  c-0.75-0.75-1.768-1.172-2.828-1.172l-138.9,0.002c-2.209,0-4,1.791-4,4L173.337,275.853z M345.111,82.097l85,85L319.692,277.52  c0.349-2.809,0.546-5.654,0.546-8.53l-0.002-162.018L345.111,82.097z M301.542,65.786l0.004,203.204  c0,33.143-26.962,60.105-60.103,60.105c-16.055,0-31.148-6.251-42.501-17.604c-11.352-11.352-17.604-26.445-17.604-42.5  l-0.003-203.204L301.542,65.786z M446.025,329.389H296.949c1.445-1.222,2.861-2.497,4.223-3.858L417.519,209.18h28.505  L446.025,329.389L446.025,329.389z"/>
<rect x="195.961" y="80.498" style="fill:#F7931E;" width="90.955" height="43.659"/>
<polygon style="fill:#D67513;" points="286.916,80.498 268.002,80.498 224.343,124.157 286.917,124.156 "/>
<path style="fill:#4B31AA;" d="M195.962,128.157c-2.209,0-4-1.791-4-4l-0.001-43.658c0-1.061,0.421-2.078,1.172-2.828  c0.75-0.75,1.768-1.172,2.828-1.172l90.955-0.002c1.061,0,2.078,0.422,2.828,1.172c0.75,0.75,1.172,1.768,1.172,2.828v43.659  c0,2.209-1.791,4-4,4L195.962,128.157z M199.961,84.499l0.001,35.658l82.954-0.001V84.497L199.961,84.499z"/>
<rect x="195.961" y="146.506" style="fill:#FBB03B;" width="90.955" height="43.659"/>
<polygon style="fill:#E8982E;" points="286.917,146.506 258.661,146.506 215.001,190.166 286.918,190.165 "/>
<path style="fill:#4B31AA;" d="M195.963,194.166c-2.209,0-4-1.791-4-4l-0.001-43.659c0-1.061,0.422-2.078,1.172-2.828  s1.768-1.172,2.828-1.172l90.955-0.001c1.061,0,2.078,0.422,2.828,1.172c0.75,0.75,1.172,1.768,1.172,2.828v43.658  c0,2.209-1.791,4-4,4L195.963,194.166z M199.962,150.507l0.001,35.659l82.954-0.002v-35.658L199.962,150.507z"/>
<rect x="195.962" y="212.513" style="fill:#F9D015;" width="90.955" height="43.659"/>
<polygon style="fill:#FBB03B;" points="286.918,212.514 260.986,212.514 217.327,256.174 286.919,256.173 "/>
<path style="fill:#4B31AA;" d="M195.964,260.174c-2.209,0-4-1.791-4-4l-0.001-43.659c0-1.061,0.422-2.078,1.172-2.828  s1.768-1.172,2.828-1.172l90.955-0.001c1.061,0,2.078,0.422,2.828,1.172c0.75,0.75,1.172,1.768,1.172,2.828v43.659  c0,2.209-1.791,4-4,4L195.964,260.174z M199.963,216.515l0.001,35.659l82.954-0.001v-35.659L199.963,216.515z"/>
<circle style="fill:#F9D015;" cx="241.441" cy="296.426" r="13.117"/>
<path style="fill:#4B31AA;" d="M241.441,313.542c-9.438,0-17.116-7.679-17.116-17.116c0-9.438,7.679-17.116,17.116-17.116  c9.438,0,17.116,7.679,17.116,17.116C258.557,305.863,250.878,313.542,241.441,313.542z M241.441,287.31  c-5.026,0-9.116,4.09-9.116,9.116c0,5.026,4.09,9.116,9.116,9.116s9.116-4.09,9.116-9.116  C250.557,291.399,246.467,287.31,241.441,287.31z"/>
<rect x="327.212" y="407.404" style="fill:#D7ECF9;" width="27.255" height="34.522"/>
<polygon style="fill:#FFFFFF;" points="436.229,433.75 436.229,415.581 370.365,388.327 345.382,406.496 345.382,442.835   370.365,461.005 "/>
<g>
	<circle style="fill:#D7ECF9;" cx="381.72" cy="424.665" r="9.085"/>
</g>
<polygon style="fill:#79A1E8;" points="291.327,397.411 32.412,413.31 32.412,431.48 291.328,451.92 "/>
<polygon style="fill:#5B86C4;" points="291.327,397.411 233.54,400.96 190.537,443.963 291.328,451.92 "/>
<path style="fill:#FBB03B;" d="M331.301,442.457l0-35.582c0-5.226-4.237-9.463-9.463-9.463h-30.51l0,54.509h30.51  C327.064,451.92,331.301,447.683,331.301,442.457z"/>
<path style="fill:#4B31AA;" d="M437.758,411.885l-65.864-27.255c-1.283-0.529-2.755-0.357-3.882,0.461l-24.982,18.17  c-0.061,0.045-0.116,0.096-0.175,0.143h-8.025c-1.536-5.744-6.771-9.993-12.993-9.993h-30.51c-0.044,0-0.084,0.011-0.127,0.013  c-0.04,0.001-0.078-0.007-0.118-0.005l-258.915,15.9c-2.11,0.129-3.755,1.878-3.755,3.992v18.169c0,2.087,1.604,3.823,3.686,3.987  l258.915,20.44c0.104,0.009,0.21,0.013,0.314,0.013h30.51c6.222,0,11.457-4.249,12.993-9.993h8.025  c0.058,0.048,0.113,0.099,0.175,0.143l24.982,18.17c0.694,0.505,1.521,0.765,2.353,0.765c0.518,0,1.037-0.101,1.529-0.304  l65.864-27.255c1.495-0.619,2.471-2.078,2.471-3.696v-18.169C440.229,413.963,439.253,412.504,437.758,411.885z M335.3,411.404  h6.082v26.522H335.3V411.404z M36.412,417.072l250.915-15.408v45.928L36.412,427.783V417.072z M327.3,442.457  c0,3.013-2.45,5.463-5.463,5.463h-26.51v-46.509h26.51c3.013,0,5.463,2.451,5.463,5.464V442.457z M370.905,456.452l-21.523-15.654  v-32.265l21.523-15.654l61.323,25.376v2.41l-38.054,0.001c-1.695-5.264-6.635-9.085-12.454-9.085  c-7.215,0-13.085,5.87-13.085,13.085c0,7.215,5.87,13.084,13.085,13.084c5.82,0,10.759-3.821,12.454-9.084l38.054-0.001v2.411  L370.905,456.452z M386.806,424.666c0,2.804-2.281,5.084-5.085,5.084s-5.085-2.28-5.085-5.084c0-2.804,2.281-5.085,5.085-5.085  S386.806,421.862,386.806,424.666z"/>
<g>
	<ellipse style="fill:#473CBA;" cx="304.276" cy="491.001" rx="131.776" ry="6.256"/>
	<ellipse style="fill:#473CBA;" cx="99.92" cy="508.272" rx="32.709" ry="3.728"/>
</g>
<g>
</g>
<g>
</g>
<g>
</g>
<g>
</g>
<g>
</g>
<g>
</g>
<g>
</g>
<g>
</g>
<g>
</g>
<g>
</g>
<g>
</g>
<g>
</g>
<g>
</g>
<g>
</g>
<g>
</g>
</svg>
