<?xml version="1.0" encoding="iso-8859-1"?>
<!-- Generator: Adobe Illustrator 19.0.0, SVG Export Plug-In . SVG Version: 6.00 Build 0)  -->
<svg xmlns="http://www.w3.org/2000/svg" xmlns:xlink="http://www.w3.org/1999/xlink" version="1.1" id="Capa_1" x="0px" y="0px" viewBox="0 0 512.011 512.011" style="enable-background:new 0 0 512.011 512.011;" xml:space="preserve">
<path style="fill:#79A1E8;" d="M422.346,54.911c155.8,12.7,68.1,317.6-86.6,295.1c-202.4-29.4-227.7,71.5-295.7-22.3  c-45.6-62.8-51.6-106.6,40-260.8C159.746-67.589,235.446,39.711,422.346,54.911z"/>
<ellipse style="fill:#473CBA;" cx="231.046" cy="505.111" rx="214" ry="6.9"/>
<path style="fill:#7693DD;" d="M227.846,474.311L227.846,474.311c-8.1,0-14.7-6.6-14.7-14.7v-131.8h29.5v131.7  C242.546,467.711,235.946,474.311,227.846,474.311z"/>
<path style="fill:#D7ECF9;" d="M227.846,43.311L227.846,43.311c8.1,0,14.7,6.6,14.7,14.7v131.7h-29.5v-131.7  C213.046,49.911,219.646,43.311,227.846,43.311z"/>
<g>
	<path style="fill:#7693DD;" d="M377.646,473.011L377.646,473.011c-7.9,2-15.9-2.8-17.9-10.7l-32.5-128l28.6-7.1l32.5,128   C390.346,463.011,385.546,471.011,377.646,473.011z"/>
	<path style="fill:#7693DD;" d="M70.746,473.011L70.746,473.011c7.9,2,15.9-2.8,17.9-10.7l35.7-141.9l-28.7-7.2l-35.7,141.9   C58.046,463.011,62.846,471.011,70.746,473.011z"/>
</g>
<rect x="39.946" y="83.611" style="fill:#FFFFFF;" width="385.2" height="253.1"/>
<polygon style="fill:#CFDDF7;" points="425.146,83.611 308.046,83.611 164.446,336.811 425.146,336.811 "/>
<g>
	<path style="fill:#473CBA;" d="M434.046,347.311h-402.9c-4.7,0-8.6-3.8-8.6-8.6l0,0c0-4.7,3.8-8.6,8.6-8.6h402.9   c4.7,0,8.6,3.8,8.6,8.6l0,0C442.546,343.511,438.746,347.311,434.046,347.311z"/>
	<path style="fill:#473CBA;" d="M434.046,91.011h-402.9c-4.7,0-8.6-3.8-8.6-8.6l0,0c0-4.7,3.8-8.6,8.6-8.6h402.9   c4.7,0,8.6,3.8,8.6,8.6l0,0C442.546,87.211,438.746,91.011,434.046,91.011z"/>
	<rect x="214.446" y="189.611" style="fill:#473CBA;" width="48.9" height="110.9"/>
</g>
<rect x="192.846" y="189.611" style="fill:#E1F0FA;" width="48.9" height="110.9"/>
<rect x="306.646" y="151.311" style="fill:#F28F20;" width="48.9" height="149.3"/>
<rect x="285.046" y="151.311" style="fill:#F9D015;" width="48.9" height="149.3"/>
<rect x="123.446" y="225.511" style="fill:#F28F20;" width="48.9" height="75"/>
<rect x="101.746" y="225.511" style="fill:#F9D015;" width="48.9" height="75"/>
<g>
	<path style="fill:#4B31AA;" d="M263.446,185.311h-70.6c-2.4,0-4.3,1.9-4.3,4.3v110.9c0,2.4,1.9,4.3,4.3,4.3h70.6   c2.4,0,4.3-1.9,4.3-4.3v-110.9C267.746,187.211,265.846,185.311,263.446,185.311z M197.146,296.311v-102.4h40.4v102.3h-40.4   V296.311z M259.146,296.311h-13v-102.4h13V296.311z"/>
	<path style="fill:#4B31AA;" d="M355.646,147.011h-70.6c-2.4,0-4.3,1.9-4.3,4.3v149.3c0,2.4,1.9,4.3,4.3,4.3h70.6   c2.4,0,4.3-1.9,4.3-4.3v-149.3C359.946,148.911,358.046,147.011,355.646,147.011z M289.346,296.311v-140.7h40.4v140.7   L289.346,296.311L289.346,296.311z M351.346,296.311h-13v-140.7h13V296.311z"/>
	<path style="fill:#4B31AA;" d="M172.346,221.211h-70.6c-2.4,0-4.3,1.9-4.3,4.3v75c0,2.4,1.9,4.3,4.3,4.3h70.6   c2.4,0,4.3-1.9,4.3-4.3v-75C176.646,223.111,174.746,221.211,172.346,221.211z M106.046,296.311v-66.5h40.4v66.5H106.046z    M168.046,296.311h-13v-66.5h13V296.311z"/>
</g>
<rect x="400.846" y="92.811" style="fill:#AACFE2;" width="27" height="239.3"/>
<path style="fill:#4B31AA;" d="M434.046,325.911h-1.9v-230.6h1.9c7.1,0,12.9-5.8,12.9-12.9s-5.8-12.9-12.9-12.9h-187.1v-11.5  c0-10.5-8.5-19-19-19s-19,8.5-19,19v11.5h-177.7c-7.1,0-12.9,5.8-12.9,12.9s5.8,12.9,12.9,12.9h4.5v230.6h-4.5  c-7.1,0-12.9,5.8-12.9,12.9s5.8,12.9,12.9,12.9h50.5l-25.8,102.5c-2.5,10.2,3.7,20.5,13.9,23.1c1.5,0.4,3.1,0.6,4.6,0.6  c8.5,0,16.3-5.8,18.5-14.4l28.1-111.7h87.9v107.9c0,10.5,8.5,19,19,19s19-8.5,19-19v-108.1h80.3l28.4,111.7  c2.2,8.6,9.9,14.4,18.5,14.4c1.5,0,3.1-0.2,4.6-0.6c4.9-1.2,9.1-4.3,11.7-8.7c2.6-4.4,3.4-9.5,2.1-14.4l-26-102.5h67.5  c7.1,0,12.9-5.8,12.9-12.9C446.846,331.611,441.146,325.911,434.046,325.911z M217.346,58.011c0-5.8,4.7-10.4,10.4-10.4  c5.8,0,10.4,4.7,10.4,10.4v11.5h-20.9v-11.5H217.346z M31.146,86.711c-2.4,0-4.3-1.9-4.3-4.3s1.9-4.3,4.3-4.3h402.9  c2.4,0,4.3,1.9,4.3,4.3s-1.9,4.3-4.3,4.3H31.146z M423.546,97.111v228.8h-18.4v-228.8H423.546z M396.546,95.311v230.6h-352.3v-230.6  H396.546z M84.446,461.211c-1.4,5.6-7.1,9-12.7,7.6l0,0c-5.6-1.4-9-7.1-7.6-12.7l26.3-104.6h21.5L84.446,461.211z M238.246,459.611  c0,5.8-4.7,10.4-10.4,10.4c-5.8,0-10.4-4.7-10.4-10.4v-108h20.9v108H238.246z M384.146,456.211c1.4,5.6-2,11.3-7.6,12.7  c-2.7,0.7-5.5,0.3-7.9-1.2c-2.4-1.4-4.1-3.7-4.8-6.4l-27.8-109.6h21.6L384.146,456.211z M434.046,343.011h-402.9  c-2.4,0-4.3-1.9-4.3-4.3s1.9-4.3,4.3-4.3h402.9c2.4,0,4.3,1.9,4.3,4.3S436.346,343.011,434.046,343.011z"/>
<g>
</g>
<g>
</g>
<g>
</g>
<g>
</g>
<g>
</g>
<g>
</g>
<g>
</g>
<g>
</g>
<g>
</g>
<g>
</g>
<g>
</g>
<g>
</g>
<g>
</g>
<g>
</g>
<g>
</g>
</svg>
