<?xml version="1.0" encoding="iso-8859-1"?>
<!-- Generator: Adobe Illustrator 19.0.0, SVG Export Plug-In . SVG Version: 6.00 Build 0)  -->
<svg xmlns="http://www.w3.org/2000/svg" xmlns:xlink="http://www.w3.org/1999/xlink" version="1.1" id="Capa_1" x="0px" y="0px" viewBox="0 0 512.02 512.02" style="enable-background:new 0 0 512.02 512.02;" xml:space="preserve">
<ellipse style="fill:#473CBA;" cx="381.9" cy="477.86" rx="62.2" ry="9.3"/>
<path style="fill:#79A1E8;" d="M477.6,251.16c29-20.4,62.5-86.2-5.1-126c-67.7-39.8-204.7,48.9-255,13.6s-190.2-12.7-146,139.7  c30.9,106.5,26.4,153.5,103.9,179.5c103.4,34.6,180.6-60,192.1-131.4C378.9,255.16,434.4,281.46,477.6,251.16z"/>
<path style="fill:#4B31AA;" d="M330.8,457.26h-5.3c-38.7,0-70.1-31.5-70.1-70.1v-124.2c0-2.2,1.8-4,4-4s4,1.8,4,4v124.2  c0,34.2,27.8,62,62,62h5.3c34.2,0,62-27.8,62-62v-124.2c0-2.2,1.8-4,4-4s4,1.8,4,4v124.2C400.9,425.86,369.5,457.26,330.8,457.26z"/>
<path style="fill:#F9D015;" d="M411.8,93.56l-2.9-1.4l-8.4-8.4c-4-4-10.5-4-14.5,0l-8.4,8.4l-2.9,1.4c-22.6,10.4-36.2,34-33.8,58.8  l11.6,122.2c1.1,11.3,8.2,21.2,18.6,25.8l22.2,9.8l22.2-9.8c10.4-4.6,17.5-14.5,18.6-25.8l11.6-122.2  C447.9,127.56,434.4,103.96,411.8,93.56z"/>
<path style="fill:#DDB717;" d="M352,269.26l0.5,5.3c1.1,11.3,8.2,21.2,18.6,25.8l22.2,9.9l22.2-9.9c10.4-4.6,17.5-14.5,18.6-25.8  l9.2-96.4L352,269.26z"/>
<g>
	<path style="fill:#4B31AA;" d="M400.9,171.86c-2.2,0-4-1.8-4-4v-16.7c0-2.2,1.8-4,4-4s4,1.8,4,4v16.7   C404.9,170.06,403.1,171.86,400.9,171.86z"/>
	<path style="fill:#4B31AA;" d="M385.6,171.86c-2.2,0-4-1.8-4-4v-16.7c0-2.2,1.8-4,4-4s4,1.8,4,4v16.7   C389.6,170.06,387.8,171.86,385.6,171.86z"/>
	<path style="fill:#4B31AA;" d="M370.3,171.86c-2.2,0-4-1.8-4-4v-16.7c0-2.2,1.8-4,4-4s4,1.8,4,4v16.7   C374.3,170.06,372.5,171.86,370.3,171.86z"/>
	<path style="fill:#4B31AA;" d="M416.2,171.86c-2.2,0-4-1.8-4-4v-16.7c0-2.2,1.8-4,4-4s4,1.8,4,4v16.7   C420.2,170.06,418.4,171.86,416.2,171.86z"/>
</g>
<path style="fill:#7693DD;" d="M386.9,346.56h12.7c13.2,0,24-10.7,24-24v-28H363v28C362.9,335.76,373.6,346.56,386.9,346.56z"/>
<g>
	<path style="fill:#4B31AA;" d="M413.5,89.86l-2.3-1.1l-7.9-7.9c-5.6-5.6-14.6-5.6-20.2,0l-7.9,7.9l-2.3,1.1   c-24.1,11.1-38.6,36.4-36.1,62.8l11.6,122.2c0.8,8.4,4.6,16.1,10.4,21.9v25.8c0,15.4,12.6,28,28,28h12.7c15.4,0,28-12.6,28-28   v-25.8c5.8-5.8,9.6-13.5,10.4-21.9l11.6-122.2C452.1,126.26,437.6,100.96,413.5,89.86z M419.5,322.56c0,11-8.9,19.9-19.9,19.9   h-12.7c-11,0-19.9-8.9-19.9-19.9v-24h52.5V322.56z M392.8,290.56l-8.2-106.3h17.3l-8.2,106.2h-0.9V290.56z M441.5,151.96   l-11.6,122.2c-0.6,6.3-3.3,12-7.5,16.4h-20.6l8.2-106.2h4.9c2.2,0,4-1.8,4-4s-1.8-4-4-4h-43.3c-2.2,0-4,1.8-4,4s1.8,4,4,4h4.9   l8.2,106.2H364c-4.2-4.4-6.9-10.1-7.5-16.4l-11.6-122.2c-2.2-23,10.4-45,31.5-54.7l2.9-1.4c0.4-0.2,0.8-0.5,1.2-0.8l8.4-8.4   c1.2-1.2,2.8-1.8,4.4-1.8s3.2,0.6,4.4,1.8l8.4,8.4c0.3,0.3,0.7,0.6,1.2,0.8l2.9,1.4l0,0C431.1,106.86,443.7,128.86,441.5,151.96z"/>
	<path style="fill:#4B31AA;" d="M393.9,58.86c-2.2,0-4-1.8-4-4v-26c0-2.2,1.8-4,4-4s4,1.8,4,4v26   C397.9,57.06,396.1,58.86,393.9,58.86z"/>
	<path style="fill:#4B31AA;" d="M355.2,67.56c-1.3,0-2.6-0.7-3.4-1.9l-13.3-20.6c-1.2-1.9-0.7-4.4,1.2-5.6c1.9-1.2,4.4-0.7,5.6,1.2   l13.3,20.6c1.2,1.9,0.7,4.4-1.2,5.6C356.7,67.26,355.9,67.56,355.2,67.56z"/>
	<path style="fill:#4B31AA;" d="M333.2,102.16c-0.6,0-1.2-0.1-1.8-0.4l-17.3-8.7c-2-1-2.8-3.4-1.8-5.4s3.4-2.8,5.4-1.8l17.3,8.7   c2,1,2.8,3.4,1.8,5.4C336.1,101.36,334.7,102.16,333.2,102.16z"/>
	<path style="fill:#4B31AA;" d="M432.5,67.56c-0.8,0-1.5-0.2-2.2-0.6c-1.9-1.2-2.4-3.7-1.2-5.6l13.3-20.6c1.2-1.9,3.7-2.4,5.6-1.2   s2.4,3.7,1.2,5.6l-13.3,20.6C435.2,66.86,433.9,67.56,432.5,67.56z"/>
	<path style="fill:#4B31AA;" d="M454.5,102.16c-1.5,0-2.9-0.8-3.6-2.2c-1-2-0.2-4.4,1.8-5.4l17.3-8.7c2-1,4.4-0.2,5.4,1.8   s0.2,4.4-1.8,5.4l-17.3,8.7C455.7,102.06,455.1,102.16,454.5,102.16z"/>
</g>
<path style="fill:#473CBA;" d="M172.3,298.96c0,20.8,16.8,37.6,37.6,37.6c13.2,0,24.8-6.8,31.5-17.1c0.6,0,1.1,0,1.7,0  c20.8,0,37.6-16.8,37.6-37.6c0-1.9-0.1-3.7-0.4-5.5c13.7-5.6,23.4-19.1,23.4-34.8c0-7.4-2.1-14.3-5.8-20.1  c7.9-6.9,12.8-17,12.8-28.3s-5-21.4-12.8-28.3c3.7-5.8,5.8-12.7,5.8-20.1c0-15.7-9.7-29.2-23.4-34.8c0.3-1.8,0.4-3.6,0.4-5.5  c0-20.8-16.8-37.6-37.6-37.6c-0.6,0-1.1,0-1.7,0c-6.7-10.3-18.3-17.1-31.5-17.1c-20.8,0-37.6,16.8-37.6,37.6L172.3,298.96  L172.3,298.96z"/>
<path style="fill:#B2D8EA;" d="M142.4,298.96c0,20.8-16.8,37.6-37.6,37.6c-13.2,0-24.8-6.8-31.5-17.1c-0.6,0-1.1,0-1.7,0  c-20.7,0-37.6-16.8-37.6-37.6c0-1.9,0.1-3.7,0.4-5.5c-13.7-5.6-23.4-19.1-23.4-34.8c0-7.4,2.1-14.3,5.8-20.1  C9,214.66,4,204.56,4,193.26s5-21.4,12.8-28.3c-3.7-5.8-5.8-12.7-5.8-20.1c0-15.7,9.7-29.2,23.4-34.8c-0.3-1.8-0.4-3.6-0.4-5.5  c0-20.8,16.8-37.6,37.6-37.6c0.6,0,1.1,0,1.7,0c6.7-10.3,18.3-17.1,31.5-17.1c20.8,0,37.6,16.8,37.6,37.6V298.96z"/>
<g>
	<path style="fill:#4B31AA;" d="M46.7,179.86c-2.2,0-4,1.8-4,4s1.8,4,4,4c5.5,0,10,4.5,10,10s-4.5,10-10,10c-2.2,0-4,1.8-4,4   s1.8,4,4,4c10,0,18.1-8.1,18.1-18.1S56.7,179.86,46.7,179.86z"/>
	<path style="fill:#4B31AA;" d="M98.4,270.86c-4.8,0.5-9.2,2.9-12.2,6.7s-4.4,8.5-3.9,13.3c0.2,2.1,2,3.6,4,3.6c0.1,0,0.3,0,0.4,0   c2.2-0.2,3.8-2.2,3.6-4.4c-0.3-2.7,0.5-5.3,2.2-7.4s4.1-3.4,6.8-3.7c2.2-0.2,3.8-2.2,3.6-4.4   C102.6,272.26,100.6,270.66,98.4,270.86z"/>
	<path style="fill:#4B31AA;" d="M100.8,105.86c2.2-0.2,3.8-2.2,3.6-4.4c-0.2-2.2-2.2-3.8-4.5-3.6c-2.7,0.3-5.3-0.5-7.4-2.2   c-2.1-1.7-3.4-4.1-3.7-6.8c-0.2-2.2-2.2-3.8-4.5-3.6c-2.2,0.2-3.8,2.2-3.6,4.4c0.5,4.8,2.9,9.2,6.7,12.2c3.3,2.6,7.2,4,11.4,4   C99.5,105.96,100.1,105.86,100.8,105.86z"/>
	<path style="fill:#4B31AA;" d="M102.3,197.36h21.1c2.2,0,4-1.8,4-4s-1.8-4-4-4h-21.1c-2.2,0-4,1.8-4,4S100.1,197.36,102.3,197.36z"/>
	<path style="fill:#4B31AA;" d="M146.5,87.66c0-23-18.7-41.6-41.6-41.6c-13.4,0-25.8,6.3-33.6,17.1c-22.8,0.1-41.3,18.7-41.3,41.5   c0,1,0,2,0.1,3c-14.1,7-23.1,21.3-23.1,37.3c0,6.8,1.6,13.4,4.8,19.3c-7.5,7.7-11.8,18.1-11.8,29s4.3,21.3,11.8,29   c-3.1,5.9-4.8,12.6-4.8,19.3c0,16,9,30.3,23.1,37.3c-0.1,1-0.1,2-0.1,3c0,22.8,18.5,41.4,41.2,41.6c7.8,10.7,20.2,17.1,33.6,17.1   c23,0,41.6-18.7,41.6-41.6V87.66H146.5z M47.5,305.16c-5.8-5.9-9.4-14.1-9.4-23c3.3,0.8,6.7,1.3,10.1,1.3   c13.3,0,26.5-6.2,34.3-17.6c1.3-1.8,0.8-4.4-1-5.6c-1.8-1.3-4.4-0.8-5.6,1c-8.6,12.3-26.3,16.7-39.9,11.4   c-12.8-4.9-20.9-17.4-20.9-31.1c0-6.4,1.8-12.5,5.2-17.9c1.1-1.7,0.7-3.9-0.8-5.2c-7.3-6.4-11.5-15.6-11.5-25.2s4.2-18.8,11.5-25.2   c1.5-1.3,1.8-3.5,0.8-5.2c-3.4-5.4-5.2-11.5-5.2-17.9c0-13.4,7.9-25.4,20.1-30.7c4.1-1.8,8.7-2.8,13.4-2.8   c18.5,0,33.5,15,33.5,33.5c0,2.2,1.8,4,4,4s4-1.8,4-4c0-23-18.7-41.6-41.6-41.6c-3.7,0-7.2,0.5-10.6,1.4l0,0c0-9,3.6-17.2,9.4-23.3   c0.2-0.1,0.4-0.3,0.5-0.4c13.1-13.1,34.4-13.1,47.4,0c0.8,0.8,1.8,1.2,2.9,1.2c1.1,0,2.1-0.4,2.9-1.2c1.6-1.6,1.6-4.1,0-5.7   c-5.8-5.8-12.8-9.5-20.3-11.1c6.2-6.4,14.8-10,23.9-10c18.5,0,33.5,15,33.5,33.5v24.3H113c-2.2,0-4,1.8-4,4s1.8,4,4,4h25.4v9.3   c-2.9-2.1-6.5-3.3-10.4-3.3c-2.2,0-4,1.8-4,4s1.8,4,4,4c5.5,0,10,4.5,10,10s-4.5,10-10,10c-2.2,0-4,1.8-4,4s1.8,4,4,4   c3.9,0,7.4-1.2,10.4-3.3v15H75.8c-4.8-0.6-9.1-2.9-12.1-6.7c-3.1-3.8-4.5-8.6-4-13.4c0.2-2.2-1.4-4.2-3.6-4.4   c-2.2-0.3-4.2,1.4-4.5,3.6c-0.7,7,1.3,13.9,5.7,19.4s10.7,8.9,17.7,9.7c0.1,0,0.3,0,0.4,0h62.8v23.3h-41c-0.1,0-0.3,0-0.4,0   c-7,0.7-13.3,4.2-17.7,9.7s-6.4,12.4-5.7,19.4c0.2,2.1,2,3.6,4,3.6c0.1,0,0.3,0,0.4,0c2.2-0.2,3.8-2.2,3.6-4.4   c-0.5-4.9,0.9-9.6,4-13.4c3-3.7,7.3-6.1,12.1-6.7h41v53.1h-24.1c-2.2,0-4,1.8-4,4s1.8,4,4,4h23.9v24.5c0,18.5-15,33.5-33.5,33.5   c-9.1,0-17.6-3.7-23.9-10c7.4-1.7,14.5-5.4,20.3-11.2c1.6-1.6,1.6-4.1,0-5.7c-1.6-1.6-4.1-1.6-5.7,0   C82.4,318.66,60.5,318.36,47.5,305.16z"/>
</g>
<path style="fill:#DFF1F7;" d="M161.5,298.96c0,20.8,16.8,37.6,37.6,37.6c13.2,0,24.8-6.8,31.5-17.1c0.6,0,1.1,0,1.7,0  c20.8,0,37.6-16.8,37.6-37.6c0-1.9-0.1-3.7-0.4-5.5c13.7-5.6,23.4-19.1,23.4-34.8c0-7.4-2.1-14.3-5.8-20.1  c7.9-6.9,12.8-17,12.8-28.3s-5-21.4-12.8-28.3c3.7-5.8,5.8-12.7,5.8-20.1c0-15.7-9.7-29.2-23.4-34.8c0.3-1.8,0.4-3.6,0.4-5.5  c0-20.8-16.8-37.6-37.6-37.6c-0.6,0-1.1,0-1.7,0c-6.7-10.3-18.3-17.1-31.5-17.1c-20.8,0-37.6,16.8-37.6,37.6  C161.5,87.36,161.5,298.96,161.5,298.96z"/>
<g>
	<path style="fill:#4B31AA;" d="M257.2,179.86c2.2,0,4,1.8,4,4s-1.8,4-4,4c-5.5,0-10,4.5-10,10s4.5,10,10,10c2.2,0,4,1.8,4,4   s-1.8,4-4,4c-10,0-18.1-8.1-18.1-18.1S247.2,179.86,257.2,179.86z"/>
	<path style="fill:#4B31AA;" d="M205.5,270.86c4.8,0.5,9.2,2.9,12.2,6.7s4.4,8.5,3.9,13.3c-0.2,2.1-2,3.6-4,3.6c-0.1,0-0.3,0-0.4,0   c-2.2-0.2-3.8-2.2-3.6-4.4c0.3-2.7-0.5-5.3-2.2-7.4s-4.1-3.4-6.8-3.7c-2.2-0.2-3.8-2.2-3.6-4.4   C201.3,272.26,203.3,270.66,205.5,270.86z"/>
	<path style="fill:#4B31AA;" d="M203.1,105.86c-2.2-0.2-3.8-2.2-3.6-4.4c0.2-2.2,2.2-3.8,4.5-3.6c2.7,0.3,5.3-0.5,7.4-2.2   c2.1-1.7,3.4-4.1,3.7-6.8c0.2-2.2,2.2-3.8,4.5-3.6c2.2,0.2,3.8,2.2,3.6,4.4c-0.5,4.8-2.9,9.2-6.7,12.2c-3.3,2.6-7.2,4-11.4,4   C204.5,105.96,203.8,105.86,203.1,105.86z"/>
	<path style="fill:#4B31AA;" d="M201.6,197.36h-21.1c-2.2,0-4-1.8-4-4s1.8-4,4-4h21.1c2.2,0,4,1.8,4,4S203.8,197.36,201.6,197.36z"/>
	<path style="fill:#4B31AA;" d="M314.7,193.26c0-10.9-4.3-21.3-11.8-29c3.1-5.9,4.8-12.6,4.8-19.3c0-16-9-30.3-23.1-37.3   c0.1-1,0.1-2,0.1-3c0-22.8-18.5-41.4-41.2-41.6c-7.8-10.7-20.2-17.1-33.6-17.1c-1.8,0-3.6,0.1-5.4,0.4c-1.8-0.2-3.6-0.4-5.4-0.4   c-23,0-41.6,18.7-41.6,41.6v211.3c0,23,18.7,41.6,41.6,41.6c1.8,0,3.6-0.1,5.4-0.4c1.8,0.2,3.5,0.4,5.4,0.4   c13.4,0,25.8-6.3,33.6-17.1c22.8-0.2,41.2-18.8,41.2-41.6c0-1,0-2-0.1-3c14.1-7,23.1-21.3,23.1-37.3c0-6.8-1.6-13.4-4.8-19.3   C310.4,214.56,314.7,204.16,314.7,193.26z M306.6,193.26c0,9.3-3.9,18.2-10.7,24.6c5.2-7.1,8-15.7,8-24.6s-2.9-17.5-8-24.6   C302.7,175.06,306.6,183.96,306.6,193.26z M299.6,144.96c0,6.4-1.8,12.5-5.2,17.9c-0.7,1.1-0.8,2.4-0.4,3.5   c-0.6-0.7-1.2-1.4-1.9-2.1c3.1-5.9,4.8-12.6,4.8-19.3c0-9.1-2.9-17.6-8-24.6C295.6,126.66,299.6,135.46,299.6,144.96z    M276.6,104.66c0,1.4-0.1,2.9-0.3,4.4c-0.8-0.5-1.7-0.9-2.5-1.4c0.1-1,0.1-2,0.1-3c0-9.2-3-17.7-8.1-24.6   C272.5,86.26,276.6,94.96,276.6,104.66z M165.5,298.96v-24.5h23.9c2.2,0,4-1.8,4-4s-1.8-4-4-4h-23.9v-53.2h41   c4.8,0.6,9.1,2.9,12.1,6.7c3.1,3.8,4.5,8.6,4,13.4c-0.2,2.2,1.4,4.2,3.6,4.4c0.1,0,0.3,0,0.4,0c2,0,3.8-1.5,4-3.6   c0.7-7-1.3-13.9-5.7-19.4s-10.7-8.9-17.7-9.7c-0.1,0-0.3,0-0.4,0h-41.2v-23.3h62.8c0.1,0,0.3,0,0.4,0c7-0.7,13.3-4.2,17.7-9.7   s6.4-12.4,5.7-19.4c-0.2-2.2-2.2-3.8-4.5-3.6c-2.2,0.2-3.8,2.2-3.6,4.4c0.5,4.9-0.9,9.6-4,13.4c-3,3.7-7.3,6.1-12.1,6.7h-62.6v-15   c2.9,2.1,6.5,3.3,10.4,3.3c2.2,0,4-1.8,4-4s-1.8-4-4-4c-5.5,0-10-4.5-10-10s4.5-10,10-10c2.2,0,4-1.8,4-4s-1.8-4-4-4   c-3.9,0-7.4,1.2-10.4,3.3v-9.3h25.4c2.2,0,4-1.8,4-4s-1.8-4-4-4h-25.4v-24.3c0-18.5,15-33.5,33.5-33.5c9.1,0,17.6,3.7,23.9,10   c-7.4,1.7-14.5,5.4-20.3,11.1c-1.6,1.6-1.6,4.1,0,5.7c0.8,0.8,1.8,1.2,2.9,1.2s2.1-0.4,2.9-1.2c13.1-13.1,34.4-13.1,47.4,0   c0.2,0.2,0.4,0.3,0.5,0.4c5.8,6,9.4,14.2,9.4,23.3l0,0c-3.4-0.9-6.9-1.4-10.6-1.4c-23,0-41.6,18.7-41.6,41.6c0,2.2,1.8,4,4,4   s4-1.8,4-4c0-18.5,15-33.5,33.5-33.5c4.8,0,9.3,1,13.4,2.8c12.2,5.4,20.1,17.3,20.1,30.7c0,6.4-1.8,12.5-5.2,17.9   c-1.1,1.7-0.7,3.9,0.8,5.2c7.3,6.4,11.5,15.6,11.5,25.2s-4.2,18.8-11.5,25.2c-1.5,1.3-1.8,3.5-0.8,5.2c3.4,5.4,5.2,11.5,5.2,17.9   c0,13.7-8.1,26.1-20.9,31.1c-13.6,5.3-31.4,0.9-39.9-11.4c-1.3-1.8-3.8-2.3-5.6-1s-2.3,3.8-1,5.6c7.8,11.3,21,17.6,34.3,17.6   c3.4,0,6.8-0.4,10.1-1.3c-0.1,8.9-3.6,17.1-9.4,23c-13,13.2-34.9,13.5-48,0.4c-1.6-1.6-4.1-1.6-5.7,0c-1.6,1.6-1.6,4.1,0,5.7   c5.8,5.8,12.8,9.5,20.3,11.2c-6.2,6.4-14.8,10-23.9,10C180.6,332.46,165.5,317.46,165.5,298.96z M232.7,323.56L232.7,323.56   L232.7,323.56L232.7,323.56z M265.8,306.46c5.1-6.9,8.1-15.4,8.1-24.6c0-1,0-2-0.1-3c0.9-0.4,1.7-0.9,2.5-1.4   c0.2,1.5,0.3,2.9,0.3,4.4C276.6,291.56,272.5,300.36,265.8,306.46z M288.9,266.16c5.1-7,8-15.5,8-24.6c0-6.8-1.6-13.4-4.8-19.3   c0.7-0.7,1.3-1.4,1.9-2.1c-0.4,1.1-0.3,2.4,0.4,3.5c3.4,5.4,5.2,11.5,5.2,17.9C299.6,251.16,295.6,259.96,288.9,266.16z"/>
</g>
<g>
</g>
<g>
</g>
<g>
</g>
<g>
</g>
<g>
</g>
<g>
</g>
<g>
</g>
<g>
</g>
<g>
</g>
<g>
</g>
<g>
</g>
<g>
</g>
<g>
</g>
<g>
</g>
<g>
</g>
</svg>
