<?xml version="1.0" encoding="iso-8859-1"?>
<!-- Generator: Adobe Illustrator 19.0.0, SVG Export Plug-In . SVG Version: 6.00 Build 0)  -->
<svg xmlns="http://www.w3.org/2000/svg" xmlns:xlink="http://www.w3.org/1999/xlink" version="1.1" id="Capa_1" x="0px" y="0px" viewBox="0 0 511.992 511.992" style="enable-background:new 0 0 511.992 511.992;" xml:space="preserve">
<path style="fill:#79A1E8;" d="M476.573,209.692c118.8,103-133.8,297.9-245.8,187.6c-146.5-144.3-226.4-36.9-226.4-194.1  s21.7-117.1,187.6-187.6C336.573-45.908,334.073,86.092,476.573,209.692z"/>
<path style="fill:#473CBA;" d="M157.573,58.392l-2.3-26.6h-27.2l-2.7,26.7c-3.6,0.7-7.1,1.7-10.6,2.9l-15.5-22l-23.5,13.6l11.1,24.7  c-2.6,2.3-5.1,4.8-7.5,7.5l-24.9-11.6l-13.6,23.5l22.3,16.1c-1.1,3.3-2.1,6.8-2.8,10.3l-27.5,2.4v27.2l27.4,2.8  c0.7,3.7,1.7,7.4,2.9,10.9l-22.3,16.1l13.6,23.5l24.9-11.6c2.4,2.7,4.9,5.2,7.6,7.6l-11.2,24.9l23.5,13.6l15.6-22.3  c3.4,1.2,6.8,2.1,10.4,2.8l2.7,26.7h27.2l2.3-26.6c3.7-0.7,7.3-1.7,10.8-2.8l15.5,21.5l23.5-13.6l-11.1-23.9  c2.9-2.5,5.6-5.2,8.1-8.1l23.7,10.7l13.6-23.5l-21.3-14.9c1.2-3.6,2.2-7.3,2.9-11.1l25.7-2.6v-27.2l-25.9-2.3  c-0.7-3.5-1.6-7-2.8-10.4l21.3-14.9l-13.6-23.5h-11.2l-12.5,10.7c-2.5-2.9-5.2-5.5-8-8l11-23.7l-23.5-13.6h-11.2L157.573,58.392z   M143.973,165.692c-16,1.3-29.2-12-27.9-27.9c1-12.6,11.2-22.7,23.7-23.7c16-1.3,29.2,12,27.9,27.9  C166.673,154.492,156.473,164.692,143.973,165.692z"/>
<path style="fill:#4B31AA;" d="M155.273,252.092h-27.2c-2.2,0-4-1.6-4.2-3.8l-2.4-23.6c-1.6-0.4-3.2-0.8-4.8-1.3l-13.9,19.8  c-1.3,1.8-3.7,2.3-5.6,1.2l-23.5-13.6c-1.9-1.1-2.6-3.4-1.7-5.4l10-22.1c-1.2-1.1-2.4-2.3-3.5-3.5l-22.1,10.3  c-2,0.9-4.4,0.2-5.5-1.7l-13.6-23.5c-1.1-1.9-0.6-4.3,1.2-5.6l19.8-14.3c-0.5-1.8-1-3.6-1.4-5.4l-24.3-2.4c-2.2-0.2-3.8-2-3.8-4.2  v-27.2c0-2.2,1.7-4,3.9-4.2l24.4-2.1c0.4-1.6,0.8-3.1,1.3-4.7l-19.8-14.3c-1.8-1.3-2.3-3.7-1.2-5.6l13.6-23.5  c1.1-1.9,3.5-2.7,5.5-1.7l22.1,10.3c1.1-1.2,2.2-2.3,3.4-3.4l-9.9-21.9c-0.9-2-0.1-4.3,1.7-5.4l23.5-13.6c1.9-1.1,4.3-0.6,5.6,1.2  l13.7,19.5c1.6-0.5,3.3-1,5-1.4l2.4-23.6c0.2-2.2,2-3.8,4.2-3.8h27.2c2.2,0,4,1.7,4.2,3.9l1.4,16.2l8.5-10.3c0.8-1,2-1.6,3.3-1.6  h11.2c0.7,0,1.5,0.2,2.1,0.6l23.5,13.6c1.9,1.1,2.7,3.5,1.7,5.5l-9.7,20.9c1.1,1,2.2,2.1,3.2,3.2l9.3-8c0.8-0.7,1.7-1,2.8-1h11.2  c1.5,0,2.9,0.8,3.7,2.1l13.6,23.5c1.1,1.9,0.6,4.3-1.2,5.6l-18.7,13.1c0.5,1.6,0.9,3.2,1.3,4.8l22.8,2c2.2,0.2,3.9,2,3.9,4.2v27.2  c0,2.2-1.6,4-3.8,4.2l-22.6,2.3c-0.4,1.9-0.9,3.7-1.5,5.5l18.7,13.1c1.8,1.3,2.3,3.7,1.2,5.6l-13.6,23.5c-1.1,1.9-3.4,2.6-5.4,1.7  l-20.9-9.4c-1.3,1.4-2.7,2.7-4.1,4.1l9.8,21.1c0.9,2,0.2,4.4-1.7,5.5l-23.5,13.6c-1.9,1.1-4.3,0.6-5.6-1.2l-13.7-19  c-1.7,0.5-3.4,1-5.2,1.4l-2.1,23.4C159.273,250.392,157.473,252.092,155.273,252.092z M131.873,243.592h19.4l2-22.7  c0.2-1.9,1.6-3.4,3.4-3.8c3.5-0.7,6.9-1.6,10.2-2.7c1.8-0.6,3.7,0,4.8,1.5l13.3,18.4l16.8-9.7l-9.5-20.4c-0.8-1.7-0.4-3.8,1.1-5  c2.7-2.4,5.3-5,7.7-7.7c1.2-1.4,3.2-1.8,4.9-1.1l20.2,9.1l9.7-16.8l-18.1-12.7c-1.5-1.1-2.2-3.1-1.6-4.8c1.2-3.4,2.1-6.9,2.8-10.5  c0.4-1.8,1.9-3.2,3.7-3.4l21.9-2.2v-19.4l-22-1.9c-1.9-0.2-3.4-1.5-3.8-3.4c-0.7-3.3-1.6-6.7-2.6-9.9c-0.6-1.8,0-3.8,1.6-4.8  l18.1-12.7l-10.4-18h-7.2l-11.3,9.7c-1.8,1.5-4.4,1.3-6-0.4c-2.4-2.7-4.9-5.3-7.6-7.6c-1.4-1.2-1.9-3.3-1.1-5l9.4-20.2l-19-11.2  h-8.1l-13.8,16.8c-1.1,1.3-2.9,1.9-4.5,1.4s-2.8-2-3-3.7l-2-22.7h-19.4l-2.3,22.9c-0.2,1.9-1.6,3.4-3.4,3.7c-3.4,0.7-6.8,1.6-10,2.7  c-1.8,0.6-3.8,0-4.9-1.6l-13.2-18.9l-16.8,9.7l9.6,21.2c0.8,1.7,0.3,3.7-1.1,4.9c-2.5,2.2-4.9,4.6-7.1,7.1c-1.2,1.4-3.3,1.8-5,1  l-21.4-10l-9.7,16.8l19.2,13.8c1.5,1.1,2.1,3,1.5,4.8c-1.1,3.2-2,6.4-2.6,9.7c-0.4,1.8-1.9,3.2-3.8,3.4l-23.7,2.1v19.4l23.6,2.4  c1.9,0.2,3.4,1.6,3.7,3.4c0.7,3.5,1.6,7,2.8,10.4c0.6,1.8,0,3.7-1.5,4.8l-19.2,13.8l9.7,16.8l21.4-10c1.7-0.8,3.7-0.4,5,1  c2.2,2.5,4.6,5,7.2,7.2c1.4,1.2,1.8,3.2,1.1,4.9l-9.7,21.4l16.8,9.7l13.4-19.1c1.1-1.5,3.1-2.2,4.8-1.6c3.2,1.1,6.5,2,9.8,2.7  c1.8,0.4,3.2,1.9,3.4,3.7L131.873,243.592z M141.873,169.992c-8,0-15.7-3.1-21.4-8.8c-6.3-6.3-9.4-14.9-8.7-23.8  c1.2-14.6,13-26.5,27.6-27.6c8.9-0.7,17.5,2.5,23.8,8.7c6.3,6.3,9.4,14.9,8.7,23.8c-1.2,14.6-13,26.5-27.6,27.6l0,0  C143.473,169.992,142.673,169.992,141.873,169.992z M141.773,118.192c-0.6,0-1.2,0-1.7,0.1c-10.5,0.8-19,9.4-19.8,19.8  c-0.5,6.4,1.8,12.6,6.3,17.1c4.5,4.5,10.7,6.8,17.1,6.3l0,0c10.5-0.8,19-9.4,19.8-19.8c0.5-6.4-1.8-12.6-6.3-17.1  C153.073,120.392,147.573,118.192,141.773,118.192z"/>
<path style="fill:#D7ECF9;" d="M237.773,152.892v-27.2l-25.9-2.3c-0.7-3.5-1.6-7-2.8-10.4l21.3-14.9l-13.6-23.5l-23.7,10.7  c-2.5-2.9-5.2-5.5-8-8l11-23.7l-23.5-13.6l-15.3,21.3c-3.6-1.2-7.2-2.2-11-2.9l-2.3-26.6h-27.2l-2.7,26.7c-3.6,0.7-7.1,1.7-10.6,2.9  l-15.5-22l-23.5,13.6l11.1,24.7c-2.6,2.3-5.1,4.8-7.5,7.5l-24.9-11.6l-13.6,23.5l22.3,16.1c-1.1,3.3-2.1,6.8-2.8,10.3l-27.5,2.4  v27.2l27.4,2.8c0.7,3.7,1.7,7.4,2.9,10.9l-22.3,16.1l13.6,23.5l24.9-11.6c2.4,2.7,4.9,5.2,7.6,7.6l-11.2,24.9l23.5,13.6l15.6-22.3  c3.4,1.2,6.8,2.1,10.4,2.8l2.7,26.7h27.2l2.3-26.6c3.7-0.7,7.3-1.7,10.8-2.8l15.5,21.5l23.5-13.6l-11.1-23.9  c2.9-2.5,5.6-5.2,8.1-8.1l23.7,10.7l13.6-23.5l-21.3-14.9c1.2-3.6,2.2-7.3,2.9-11.1L237.773,152.892z M132.673,165.692  c-16,1.3-29.2-12-27.9-27.9c1-12.6,11.2-22.7,23.7-23.7c16-1.3,29.2,12,27.9,27.9C155.473,154.492,145.273,164.692,132.673,165.692z  "/>
<g>
	<path style="fill:#4B31AA;" d="M99.373,244.892h-11.5c-2.3,0-4.2-1.9-4.2-4.2c0-2.3,1.9-4.2,4.2-4.2h11.5c2.3,0,4.2,1.9,4.2,4.2   S101.673,244.892,99.373,244.892z"/>
	<path style="fill:#4B31AA;" d="M54.573,77.692h-11.2c-2.3,0-4.2-1.9-4.2-4.2c0-2.3,1.9-4.2,4.2-4.2h11.2c2.3,0,4.2,1.9,4.2,4.2   S56.873,77.692,54.573,77.692z"/>
	<path style="fill:#4B31AA;" d="M54.573,210.392h-11.2c-2.3,0-4.2-1.9-4.2-4.2s1.9-4.2,4.2-4.2h11.2c2.3,0,4.2,1.9,4.2,4.2   S56.873,210.392,54.573,210.392z"/>
</g>
<path style="fill:#AACFE2;" d="M237.773,152.892v-27.2l-25.9-2.3c-0.7-3.6-1.6-7-2.8-10.4l21.3-14.9l-13.6-23.5l-23.7,10.7  c-1.1-1.2-2.2-2.4-3.3-3.5l-40.3,40.3c4.8,5.1,7.5,12.1,6.9,19.8c-1,12.6-11.2,22.7-23.7,23.7c-7.7,0.6-14.7-2.1-19.8-6.9  l-40.3,40.3c1.1,1,2.2,2.1,3.3,3.1l-11.2,24.9l23.5,13.6l15.6-22.3c3.4,1.2,6.8,2.1,10.4,2.8l2.7,26.7h27.2l2.3-26.6  c3.7-0.7,7.3-1.7,10.8-2.8l15.5,21.5l23.5-13.6l-11.1-23.9c2.9-2.5,5.6-5.2,8.1-8.1l23.7,10.7l13.6-23.5l-21.3-14.9  c1.2-3.6,2.2-7.3,2.9-11.1L237.773,152.892z"/>
<path style="fill:#FBB03B;" d="M130.673,188.992c-27.1,0-49.2-22.1-49.2-49.2s22.1-49.2,49.2-49.2s49.2,22.1,49.2,49.2  S157.773,188.992,130.673,188.992z M130.673,112.892c-14.8,0-26.9,12.1-26.9,26.9c0,14.8,12.1,26.9,26.9,26.9s26.9-12.1,26.9-26.9  C157.573,124.992,145.473,112.892,130.673,112.892z"/>
<g>
	<path style="fill:#4B31AA;" d="M143.973,252.092h-27.2c-2.2,0-4-1.6-4.2-3.8l-2.4-23.6c-1.6-0.4-3.2-0.8-4.8-1.3l-13.9,19.8   c-1.3,1.8-3.7,2.3-5.6,1.2l-23.5-13.6c-1.9-1.1-2.6-3.4-1.7-5.4l10-22.1c-1.2-1.1-2.4-2.3-3.5-3.5l-22.1,10.3   c-2,0.9-4.4,0.2-5.5-1.7l-13.6-23.5c-1.1-1.9-0.6-4.3,1.2-5.6l19.8-14.3c-0.5-1.8-1-3.6-1.4-5.4l-24.3-2.4c-2.2-0.2-3.8-2-3.8-4.2   v-27.2c0-2.2,1.7-4,3.9-4.2l24.4-2.1c0.4-1.6,0.8-3.1,1.3-4.7l-19.8-14.3c-1.8-1.3-2.3-3.7-1.2-5.6l13.6-23.5   c1.1-1.9,3.5-2.7,5.5-1.7l22.1,10.3c1.1-1.2,2.2-2.3,3.4-3.4l-9.9-21.9c-0.9-2-0.1-4.3,1.7-5.4l23.5-13.6c1.9-1.1,4.3-0.6,5.6,1.2   l13.7,19.5c1.6-0.5,3.3-1,5-1.4l2.4-23.6c0.2-2.2,2-3.8,4.2-3.8h27.2c2.2,0,4,1.7,4.2,3.9l2.1,23.4c1.8,0.4,3.6,0.9,5.4,1.4   l13.5-18.8c1.3-1.8,3.7-2.3,5.6-1.2l23.5,13.6c1.9,1.1,2.7,3.5,1.7,5.5l-9.7,20.9c1.4,1.3,2.7,2.6,3.9,3.9l20.9-9.4   c2-0.9,4.3-0.1,5.4,1.7l13.6,23.5c1.1,1.9,0.6,4.3-1.2,5.6l-18.7,13.1c0.5,1.6,0.9,3.2,1.3,4.8l22.8,2c2.2,0.2,3.9,2,3.9,4.2v27.2   c0,2.2-1.6,4-3.8,4.2l-22.6,2.3c-0.4,1.9-0.9,3.7-1.5,5.5l18.7,13.1c1.8,1.3,2.3,3.7,1.2,5.6l-13.6,23.5c-1.1,1.9-3.4,2.6-5.4,1.7   l-20.9-9.4c-1.3,1.4-2.7,2.7-4.1,4.1l9.8,21.1c0.9,2,0.2,4.4-1.7,5.5l-23.5,13.6c-1.9,1.1-4.3,0.6-5.6-1.2l-13.7-19   c-1.7,0.5-3.4,1-5.2,1.4l-2.1,23.4C148.073,250.392,146.173,252.092,143.973,252.092z M120.673,243.592h19.4l2-22.7   c0.2-1.9,1.6-3.4,3.4-3.8c3.5-0.7,6.9-1.6,10.2-2.7c1.8-0.6,3.7,0,4.8,1.5l13.3,18.4l16.8-9.7l-9.5-20.4c-0.8-1.7-0.4-3.8,1.1-5   c2.7-2.4,5.3-5,7.7-7.7c1.2-1.4,3.2-1.8,4.9-1.1l20.2,9.1l9.7-16.8l-18.1-12.7c-1.5-1.1-2.2-3.1-1.6-4.8c1.2-3.4,2.1-6.9,2.8-10.5   c0.4-1.8,1.9-3.2,3.7-3.4l21.9-2.2v-19.4l-22-1.9c-1.9-0.2-3.4-1.5-3.8-3.4c-0.7-3.3-1.6-6.7-2.6-9.9c-0.6-1.8,0-3.8,1.6-4.8   l18.1-12.7l-9.7-16.8l-20.2,9.1c-1.7,0.8-3.7,0.3-4.9-1.1c-2.4-2.7-4.9-5.3-7.6-7.6c-1.4-1.2-1.9-3.3-1.1-5l9.4-20.2l-16.8-9.7   l-12.999,18.1c-1.1,1.5-3,2.1-4.8,1.5c-3.4-1.1-6.9-2.1-10.4-2.8c-1.9-0.4-3.3-1.9-3.4-3.8l-2-22.7h-19.4l-2.3,22.9   c-0.2,1.9-1.6,3.4-3.4,3.7c-3.4,0.7-6.8,1.6-10,2.7c-1.8,0.6-3.8,0-4.9-1.6l-13.2-18.9l-16.8,9.7l9.6,21.2c0.8,1.7,0.3,3.7-1.1,4.9   c-2.5,2.2-4.9,4.6-7.1,7.1c-1.2,1.4-3.3,1.8-5,1l-21.4-10l-9.7,16.8l19.2,13.8c1.5,1.1,2.1,3,1.5,4.8c-1.1,3.2-2,6.4-2.6,9.7   c-0.4,1.8-1.9,3.2-3.8,3.4l-23.6,2.1v19.4l23.6,2.4c1.9,0.2,3.4,1.6,3.7,3.4c0.7,3.5,1.6,7,2.8,10.4c0.6,1.8,0,3.7-1.5,4.8   l-19.2,13.8l9.7,16.8l21.4-10c1.7-0.8,3.7-0.4,5,1c2.2,2.5,4.6,5,7.2,7.2c1.4,1.2,1.8,3.2,1.1,4.9l-9.7,21.4l16.8,9.7l13.4-19.1   c1.1-1.5,3.1-2.2,4.8-1.6c3.2,1.1,6.5,2,9.8,2.7c1.8,0.4,3.2,1.9,3.4,3.7L120.673,243.592z M130.673,169.992   c-8,0-15.7-3.1-21.4-8.8c-6.3-6.3-9.4-14.9-8.7-23.8c1.2-14.6,13-26.5,27.6-27.6c8.8-0.7,17.5,2.5,23.8,8.7   c6.3,6.3,9.4,14.9,8.7,23.8c-1.2,14.6-13,26.5-27.6,27.6l0,0C132.273,169.992,131.473,169.992,130.673,169.992z M130.573,118.192   c-0.6,0-1.2,0-1.7,0.1c-10.5,0.8-19,9.4-19.8,19.8c-0.5,6.4,1.8,12.6,6.3,17.1s10.7,6.8,17.1,6.3l0,0c10.5-0.8,19-9.4,19.8-19.8   c0.5-6.4-1.8-12.6-6.3-17.1C141.873,120.392,136.373,118.192,130.573,118.192z"/>
	<path style="fill:#4B31AA;" d="M241.673,102.392h-11.2c-2.3,0-4.2-1.9-4.2-4.2s1.9-4.2,4.2-4.2h11.2c2.3,0,4.2,1.9,4.2,4.2   S243.973,102.392,241.673,102.392z"/>
	<path style="fill:#4B31AA;" d="M209.173,117.292c-2.3,0-4.1-1.8-4.2-4.1c-0.1-2.3,1.7-4.3,4.1-4.4l11.9-0.5   c2.3-0.1,4.3,1.7,4.4,4.1c0.1,2.3-1.7,4.3-4.1,4.4l-11.9,0.5C209.273,117.292,209.173,117.292,209.173,117.292z"/>
	<path style="fill:#4B31AA;" d="M248.973,129.992h-11.2c-2.3,0-4.2-1.9-4.2-4.2s1.9-4.2,4.2-4.2h11.2c2.3,0,4.2,1.9,4.2,4.2   C253.273,128.092,251.373,129.992,248.973,129.992z"/>
	<path style="fill:#4B31AA;" d="M248.973,157.192h-11.2c-2.3,0-4.2-1.9-4.2-4.2s1.9-4.2,4.2-4.2h11.2c2.3,0,4.2,1.9,4.2,4.2   C253.273,155.292,251.373,157.192,248.973,157.192z"/>
	<path style="fill:#4B31AA;" d="M241.673,185.692c-0.1,0-0.1,0-0.2,0l-12.5-0.5c-2.3-0.1-4.2-2.1-4.1-4.4c0.1-2.3,2-4.2,4.4-4.1   l12.5,0.5c2.3,0.1,4.2,2.1,4.1,4.4C245.773,183.892,243.873,185.692,241.673,185.692z"/>
	<path style="fill:#4B31AA;" d="M220.373,170.792h-11.2c-2.3,0-4.2-1.9-4.2-4.2s1.9-4.2,4.2-4.2h11.2c2.3,0,4.2,1.9,4.2,4.2   S222.673,170.792,220.373,170.792z"/>
	<path style="fill:#4B31AA;" d="M228.073,209.292h-11.2c-2.3,0-4.2-1.9-4.2-4.2s1.9-4.2,4.2-4.2h11.2c2.3,0,4.2,1.9,4.2,4.2   S230.373,209.292,228.073,209.292z"/>
	<path style="fill:#4B31AA;" d="M196.173,206.692h-11.2c-2.3,0-4.2-1.9-4.2-4.2s1.9-4.2,4.2-4.2h11.2c2.3,0,4.2,1.9,4.2,4.2   S198.573,206.692,196.173,206.692z"/>
	<path style="fill:#4B31AA;" d="M207.373,230.692h-11.2c-2.3,0-4.2-1.9-4.2-4.2s1.9-4.2,4.2-4.2h11.2c2.3,0,4.2,1.9,4.2,4.2   S209.673,230.692,207.373,230.692z"/>
	<path style="fill:#4B31AA;" d="M183.873,244.192h-11.2c-2.3,0-4.2-1.9-4.2-4.2s1.9-4.2,4.2-4.2h11.2c2.3,0,4.2,1.9,4.2,4.2   S186.173,244.192,183.873,244.192z"/>
	<path style="fill:#4B31AA;" d="M99.373,43.592h-11.2c-2.3,0-4.2-1.9-4.2-4.2s1.9-4.2,4.2-4.2h11.2c2.3,0,4.2,1.9,4.2,4.2   S101.673,43.592,99.373,43.592z"/>
	<path style="fill:#4B31AA;" d="M196.373,81.592h-11.2c-2.3,0-4.2-1.9-4.2-4.2c0-2.3,1.9-4.2,4.2-4.2h11.2c2.3,0,4.2,1.9,4.2,4.2   S198.673,81.592,196.373,81.592z"/>
</g>
<path style="fill:#7693DD;" d="M455.473,384.792c0,14.3-11.6,26-26,26h-29.6c-14.3,0-26-11.6-26-26v-222.3c0-14.3,11.6-26,26-26  h29.6c14.3,0,26,11.6,26,26V384.792z"/>
<g>
	<path style="fill:#FFFFFF;" d="M433.773,161.492c0-13.8-11.2-25-25-25h-285.2c-13.8,0-25.3,11.2-25.3,25v163.1h335.5V161.492z"/>
	<path style="fill:#FFFFFF;" d="M98.273,324.592v60.9c0,13.8,11.5,25.2,25.3,25.2h285.2c13.8,0,25-11.4,25-25.2v-60.9H98.273z"/>
</g>
<path style="fill:#CFDDF7;" d="M372.173,324.592l-86.2,86.2h122.8c13.8,0,25-11.4,25-25.2v-60.9L372.173,324.592L372.173,324.592z"/>
<circle style="fill:#FFFFFF;" cx="266.173" cy="360.092" r="13.8"/>
<path style="fill:#4B31AA;" d="M266.173,378.192c-10,0-18.1-8.1-18.1-18.1s8.1-18.1,18.1-18.1s18.1,8.1,18.1,18.1  C284.173,370.092,276.073,378.192,266.173,378.192z M266.173,350.592c-5.3,0-9.6,4.3-9.6,9.6s4.3,9.6,9.6,9.6s9.6-4.3,9.6-9.6  C275.773,354.892,271.473,350.592,266.173,350.592z"/>
<polygon style="fill:#FFFFFF;" points="339.673,459.492 252.873,459.492 243.673,410.792 330.473,410.792 "/>
<polygon style="fill:#D7ECF9;" points="321.973,459.492 213.773,459.492 225.873,410.792 312.673,410.792 "/>
<path style="fill:#FFFFFF;" d="M364.373,466.392c0-3.8-4.2-6.9-9.5-6.9h-164.8c-5.2,0-9.5,3.1-9.5,6.9l0,0c0,3.8,4.2,6.9,9.5,6.9  h164.8C360.073,473.292,364.373,470.192,364.373,466.392L364.373,466.392z"/>
<rect x="117.173" y="154.192" style="fill:#473CBA;" width="299.7" height="168.2"/>
<path style="fill:#4B31AA;" d="M429.573,132.292h-306c-16.3,0-29.5,13.1-29.5,29.2v163.1v60.9c0,16.2,13.2,29.5,29.5,29.5h96.9  l-10,40.2h-20.3c-7.7,0-13.7,4.9-13.7,11.1s6,11.1,13.7,11.1h164.8c7.7,0,13.7-4.9,13.7-11.1s-6-11.1-13.7-11.1h-11.7l-7.6-40.2  h64.3h8.8h20.8c16.7,0,30.2-13.6,30.2-30.2v-222.3C459.773,145.792,446.173,132.292,429.573,132.292z M102.573,161.492  c0-11.4,9.4-20.8,21-20.8h285.2c11.4,0,20.8,9.3,20.8,20.8v158.9h-8.4v-166.2c0-2.3-1.9-4.2-4.2-4.2h-299.7c-2.3,0-4.2,1.9-4.2,4.2  v166.1h-10.4v-158.8H102.573z M121.373,318.192v-159.7h291.2v159.7H121.373L121.373,318.192z M102.573,385.592v-56.7h327v56.7  c0,11.6-9.3,21-20.8,21h-285.2C112.173,406.592,102.573,396.892,102.573,385.592z M229.173,414.992h80l7.6,40.2h-97.6  L229.173,414.992z M360.073,466.392c0,1.1-2.1,2.7-5.2,2.7h-164.8c-3.1,0-5.2-1.6-5.2-2.7s2.1-2.7,5.2-2.7h164.8  C357.973,463.692,360.073,465.292,360.073,466.392z M334.573,455.192h-9.1l-7.6-40.2h9.1L334.573,455.192z M451.273,384.792  c0,12-9.8,21.7-21.7,21.7h-0.3c5.4-5.3,8.7-12.8,8.7-21v-60.9v-163.1c0-8.1-3.3-15.5-8.7-20.8h0.2c12,0,21.7,9.8,21.7,21.7v222.4  H451.273z"/>
<ellipse style="fill:#473CBA;" cx="274.373" cy="503.592" rx="109.7" ry="8.4"/>
<path style="fill:#7693DD;" d="M379.273,65.792L379.273,65.792c15.1,0,27.3,12.2,27.3,27.3v40.5h-72.8v-67.8H379.273"/>
<path style="fill:#FFFFFF;" d="M351.973,321.292v-228.2c0-15.1,12.2-27.3,27.3-27.3h-176.8c-15.9,0-28.8,12.9-28.8,28.8v226.7  H351.973z"/>
<polygon style="fill:#CFDDF7;" points="173.673,321.292 351.973,321.292 351.973,128.192 173.673,306.492 "/>
<g>
	<rect x="199.373" y="175.692" style="fill:#F15A24;" width="120.9" height="6.7"/>
	<rect x="199.373" y="147.992" style="fill:#F15A24;" width="120.9" height="6.7"/>
	<rect x="199.373" y="120.292" style="fill:#F15A24;" width="120.9" height="6.7"/>
	<rect x="199.373" y="258.892" style="fill:#F15A24;" width="120.9" height="6.7"/>
	<rect x="199.373" y="231.192" style="fill:#F15A24;" width="120.9" height="6.7"/>
	<rect x="199.373" y="203.492" style="fill:#F15A24;" width="120.9" height="6.7"/>
</g>
<path style="fill:#4B31AA;" d="M379.273,61.592h-176.8c-18.2,0-33,14.8-33,33v226.7c0,2.3,1.9,4.2,4.2,4.2h178.3  c2.3,0,4.2-1.9,4.2-4.2v-183.5h50.4c2.3,0,4.2-1.9,4.2-4.2v-40.5C410.873,75.692,396.673,61.592,379.273,61.592z M347.773,317.092  h-169.8v-222.5c0-13.5,11-24.5,24.5-24.5h154.5h0.8c-6.2,5.8-10,14-10,23.1V317.092z M402.373,129.392h-46.1v-36.3  c0-12.7,10.3-23.1,23.1-23.1s23.1,10.3,23.1,23.1v36.3H402.373z"/>
<g>
</g>
<g>
</g>
<g>
</g>
<g>
</g>
<g>
</g>
<g>
</g>
<g>
</g>
<g>
</g>
<g>
</g>
<g>
</g>
<g>
</g>
<g>
</g>
<g>
</g>
<g>
</g>
<g>
</g>
</svg>
